<svg width="105" height="63" viewBox="0 0 105 63" fill="none" xmlns="http://www.w3.org/2000/svg">
<path d="M19.7002 0.500122V16.9001H29.7224V8.70012H73.4558V16.9001H84.8446V0.500122H42.0224H19.7002Z" stroke="#2B4248"/>
<path d="M19.2441 49.2443V61.9998H41.8974V59.3855C41.8974 53.7847 46.4378 49.2443 52.0386 49.2443V49.2443C57.9062 49.2443 62.6628 54.0009 62.6628 59.8685V61.9998H84.8441V49.2443" stroke="#2B4248"/>
<path d="M81 57.5001L81 44.5001L60.9712 44.5001L60.9712 48.5338C60.9712 53.4857 56.9568 57.5001 52.0048 57.5001V57.5001C46.817 57.5001 42.6115 53.2946 42.6115 48.1068L42.6115 44.5001L23 44.5001L23 57.5001" stroke="#2B4248"/>
<path d="M1.14 38.0001L7.06 23.2601H7.12L13.02 38.0001H12.26L6.88 24.3601L7.34 24.1401L1.82 38.0001H1.14ZM3.8 32.3801H10.38L10.54 33.0201H3.66L3.8 32.3801ZM16.5402 30.3201L16.6202 32.7001L16.5402 32.4401C16.7002 31.9601 16.9602 31.5535 17.3202 31.2201C17.6802 30.8735 18.0868 30.6068 18.5402 30.4201C18.9935 30.2335 19.4535 30.1401 19.9202 30.1401L19.8802 30.7601C19.2935 30.7735 18.7535 30.9135 18.2602 31.1801C17.7668 31.4335 17.3735 31.7868 17.0802 32.2401C16.8002 32.6801 16.6602 33.1801 16.6602 33.7401V38.0001H16.0002V30.3201H16.5402ZM28.1483 37.2601C27.7883 37.5268 27.3883 37.7401 26.9483 37.9001C26.5216 38.0601 26.0683 38.1401 25.5883 38.1401C24.8149 38.1401 24.1216 37.9668 23.5083 37.6201C22.9083 37.2601 22.4283 36.7868 22.0683 36.2001C21.7216 35.6001 21.5483 34.9201 21.5483 34.1601C21.5483 33.4001 21.7283 32.7201 22.0883 32.1201C22.4483 31.5068 22.9283 31.0268 23.5283 30.6801C24.1416 30.3201 24.8083 30.1401 25.5283 30.1401C26.0483 30.1401 26.5283 30.2201 26.9683 30.3801C27.4216 30.5401 27.8149 30.7601 28.1483 31.0401L27.7883 31.5001C27.4949 31.2601 27.1549 31.0668 26.7683 30.9201C26.3949 30.7735 25.9949 30.7001 25.5683 30.7001C24.9416 30.7001 24.3749 30.8535 23.8683 31.1601C23.3616 31.4668 22.9549 31.8868 22.6483 32.4201C22.3549 32.9401 22.2083 33.5201 22.2083 34.1601C22.2083 34.7868 22.3549 35.3601 22.6483 35.8801C22.9549 36.4001 23.3683 36.8135 23.8883 37.1201C24.4083 37.4268 24.9816 37.5801 25.6083 37.5801C26.0216 37.5801 26.4083 37.5135 26.7683 37.3801C27.1416 37.2468 27.4749 37.0668 27.7683 36.8401L28.1483 37.2601ZM30.8439 38.0001V22.8801H31.4839V32.4201L31.4439 32.1201C31.6972 31.5601 32.1172 31.0935 32.7039 30.7201C33.3039 30.3335 33.9839 30.1401 34.7439 30.1401C35.4639 30.1401 36.0439 30.3535 36.4839 30.7801C36.9239 31.2068 37.1506 31.7535 37.1639 32.4201V38.0001H36.4839V32.5801C36.4706 32.0468 36.2972 31.6068 35.9639 31.2601C35.6439 30.9135 35.1839 30.7268 34.5839 30.7001C34.0372 30.7001 33.5306 30.8335 33.0639 31.1001C32.5972 31.3668 32.2172 31.7268 31.9239 32.1801C31.6439 32.6335 31.5039 33.1401 31.5039 33.7001V38.0001H30.8439ZM40.8244 30.3201H41.4844V38.0001H40.8244V30.3201ZM40.6044 27.6801C40.6044 27.5335 40.6577 27.4068 40.7644 27.3001C40.8844 27.1935 41.0177 27.1401 41.1644 27.1401C41.3244 27.1401 41.4577 27.1935 41.5644 27.3001C41.671 27.4068 41.7244 27.5401 41.7244 27.7001C41.7244 27.8601 41.671 27.9935 41.5644 28.1001C41.4577 28.2068 41.3244 28.2601 41.1644 28.2601C41.0177 28.2601 40.8844 28.2068 40.7644 28.1001C40.6577 27.9801 40.6044 27.8401 40.6044 27.6801ZM45.9208 26.9401H46.5808V30.4401H49.0608V30.9801H46.5808V38.0001H45.9208V30.9801H44.2008V30.4401H45.9208V26.9401ZM54.6898 38.1401C53.9165 38.1401 53.2232 37.9668 52.6098 37.6201C52.0098 37.2601 51.5298 36.7801 51.1698 36.1801C50.8232 35.5668 50.6498 34.8868 50.6498 34.1401C50.6498 33.3935 50.8298 32.7135 51.1898 32.1001C51.5498 31.4868 52.0365 31.0001 52.6498 30.6401C53.2632 30.2801 53.9432 30.1001 54.6898 30.1001C55.5832 30.1001 56.3298 30.3601 56.9298 30.8801C57.5432 31.3868 57.9898 32.0401 58.2698 32.8401L51.4298 35.5601L51.2298 35.0601L57.6898 32.5001L57.5298 32.7401C57.2765 32.1801 56.9032 31.6935 56.4098 31.2801C55.9298 30.8668 55.3432 30.6601 54.6498 30.6601C54.0232 30.6601 53.4565 30.8135 52.9498 31.1201C52.4432 31.4268 52.0365 31.8468 51.7298 32.3801C51.4365 32.9001 51.2898 33.4801 51.2898 34.1201C51.2898 34.7201 51.4298 35.2868 51.7098 35.8201C52.0032 36.3401 52.4032 36.7601 52.9098 37.0801C53.4165 37.4001 54.0098 37.5601 54.6898 37.5601C55.1432 37.5601 55.5698 37.4801 55.9698 37.3201C56.3832 37.1468 56.7432 36.9268 57.0498 36.6601L57.4298 37.1201C57.0565 37.4268 56.6298 37.6735 56.1498 37.8601C55.6832 38.0468 55.1965 38.1401 54.6898 38.1401ZM66.7811 37.2601C66.4211 37.5268 66.0211 37.7401 65.5811 37.9001C65.1544 38.0601 64.7011 38.1401 64.2211 38.1401C63.4478 38.1401 62.7544 37.9668 62.1411 37.6201C61.5411 37.2601 61.0611 36.7868 60.7011 36.2001C60.3544 35.6001 60.1811 34.9201 60.1811 34.1601C60.1811 33.4001 60.3611 32.7201 60.7211 32.1201C61.0811 31.5068 61.5611 31.0268 62.1611 30.6801C62.7744 30.3201 63.4411 30.1401 64.1611 30.1401C64.6811 30.1401 65.1611 30.2201 65.6011 30.3801C66.0544 30.5401 66.4478 30.7601 66.7811 31.0401L66.4211 31.5001C66.1278 31.2601 65.7878 31.0668 65.4011 30.9201C65.0278 30.7735 64.6278 30.7001 64.2011 30.7001C63.5744 30.7001 63.0078 30.8535 62.5011 31.1601C61.9944 31.4668 61.5878 31.8868 61.2811 32.4201C60.9878 32.9401 60.8411 33.5201 60.8411 34.1601C60.8411 34.7868 60.9878 35.3601 61.2811 35.8801C61.5878 36.4001 62.0011 36.8135 62.5211 37.1201C63.0411 37.4268 63.6144 37.5801 64.2411 37.5801C64.6544 37.5801 65.0411 37.5135 65.4011 37.3801C65.7744 37.2468 66.1078 37.0668 66.4011 36.8401L66.7811 37.2601ZM70.2567 26.9401H70.9167V30.4401H73.3967V30.9801H70.9167V38.0001H70.2567V30.9801H68.5367V30.4401H70.2567V26.9401ZM78.1458 38.1801C77.4391 38.1801 76.8724 37.9668 76.4458 37.5401C76.0191 37.1135 75.7924 36.5668 75.7658 35.9001V30.3201H76.4258V35.7201C76.4391 36.2535 76.6058 36.6935 76.9258 37.0401C77.2458 37.3868 77.7191 37.5735 78.3458 37.6001C78.8658 37.6001 79.3591 37.4735 79.8258 37.2201C80.2924 36.9535 80.6658 36.5935 80.9458 36.1401C81.2391 35.6735 81.3858 35.1535 81.3858 34.5801V30.3201H82.0458V38.0001H81.4658L81.4058 35.6201L81.4858 35.9601C81.3658 36.3735 81.1324 36.7535 80.7858 37.1001C80.4524 37.4335 80.0524 37.7001 79.5858 37.9001C79.1324 38.0868 78.6524 38.1801 78.1458 38.1801ZM86.2667 30.3201L86.3467 32.7001L86.2667 32.4401C86.4267 31.9601 86.6867 31.5535 87.0467 31.2201C87.4067 30.8735 87.8134 30.6068 88.2667 30.4201C88.7201 30.2335 89.1801 30.1401 89.6467 30.1401L89.6067 30.7601C89.0201 30.7735 88.4801 30.9135 87.9867 31.1801C87.4934 31.4335 87.1001 31.7868 86.8067 32.2401C86.5267 32.6801 86.3867 33.1801 86.3867 33.7401V38.0001H85.7267V30.3201H86.2667ZM95.3148 38.1401C94.5415 38.1401 93.8482 37.9668 93.2348 37.6201C92.6348 37.2601 92.1548 36.7801 91.7948 36.1801C91.4482 35.5668 91.2748 34.8868 91.2748 34.1401C91.2748 33.3935 91.4548 32.7135 91.8148 32.1001C92.1748 31.4868 92.6615 31.0001 93.2748 30.6401C93.8882 30.2801 94.5682 30.1001 95.3148 30.1001C96.2082 30.1001 96.9548 30.3601 97.5548 30.8801C98.1682 31.3868 98.6148 32.0401 98.8948 32.8401L92.0548 35.5601L91.8548 35.0601L98.3148 32.5001L98.1548 32.7401C97.9015 32.1801 97.5282 31.6935 97.0348 31.2801C96.5548 30.8668 95.9682 30.6601 95.2748 30.6601C94.6482 30.6601 94.0815 30.8135 93.5748 31.1201C93.0682 31.4268 92.6615 31.8468 92.3548 32.3801C92.0615 32.9001 91.9148 33.4801 91.9148 34.1201C91.9148 34.7201 92.0548 35.2868 92.3348 35.8201C92.6282 36.3401 93.0282 36.7601 93.5348 37.0801C94.0415 37.4001 94.6348 37.5601 95.3148 37.5601C95.7682 37.5601 96.1948 37.4801 96.5948 37.3201C97.0082 37.1468 97.3682 36.9268 97.6748 36.6601L98.0548 37.1201C97.6815 37.4268 97.2548 37.6735 96.7748 37.8601C96.3082 38.0468 95.8215 38.1401 95.3148 38.1401Z" fill="#2B4248"/>
</svg>
