<svg width="96" height="100" viewBox="0 0 96 100" fill="none" xmlns="http://www.w3.org/2000/svg">
<path d="M8.33471 70.75L48.1719 1.75L88.009 70.75H8.33471Z" stroke="#2B4248" stroke-width="1.5"/>
<path d="M45.2329 69.9325V71.25H25.1304V41.5H44.6379V42.8175H26.5754V55.4825H42.7254V56.8H26.5754V69.9325H45.2329ZM59.1716 42.8175H48.2491V41.5H71.4966V42.8175H60.5741V71.25H59.1716V42.8175Z" fill="#2B4248"/>
<path d="M65.6719 38.75L48.1719 8.25L30.6719 38.75H65.6719Z" stroke="#2B4248" stroke-width="1.5"/>
<path d="M7.01526 81.306C6.52526 81.306 6.08192 81.1987 5.68526 80.984C5.29326 80.7647 4.98526 80.466 4.76126 80.088C4.53726 79.7053 4.42526 79.276 4.42526 78.8C4.42526 78.324 4.53726 77.897 4.76126 77.519C4.98526 77.1363 5.29559 76.8377 5.69226 76.623C6.08892 76.4037 6.53226 76.294 7.02226 76.294C7.40492 76.294 7.75492 76.3593 8.07226 76.49C8.38959 76.616 8.66026 76.805 8.88426 77.057L8.42926 77.498C8.06059 77.1107 7.60092 76.917 7.05026 76.917C6.68626 76.917 6.35726 76.9987 6.06326 77.162C5.76926 77.3253 5.53826 77.5517 5.37026 77.841C5.20692 78.1257 5.12526 78.4453 5.12526 78.8C5.12526 79.1547 5.20692 79.4767 5.37026 79.766C5.53826 80.0507 5.76926 80.2747 6.06326 80.438C6.35726 80.6013 6.68626 80.683 7.05026 80.683C7.59626 80.683 8.05592 80.487 8.42926 80.095L8.88426 80.536C8.66026 80.788 8.38726 80.9793 8.06526 81.11C7.74792 81.2407 7.39792 81.306 7.01526 81.306ZM14.7923 81.306C14.2976 81.306 13.852 81.1987 13.4553 80.984C13.0586 80.7647 12.746 80.4637 12.5173 80.081C12.2933 79.6983 12.1813 79.2713 12.1813 78.8C12.1813 78.3287 12.2933 77.9017 12.5173 77.519C12.746 77.1363 13.0586 76.8377 13.4553 76.623C13.852 76.4037 14.2976 76.294 14.7923 76.294C15.2823 76.294 15.7256 76.4037 16.1223 76.623C16.519 76.8377 16.8293 77.1363 17.0533 77.519C17.2773 77.897 17.3893 78.324 17.3893 78.8C17.3893 79.276 17.2773 79.7053 17.0533 80.088C16.8293 80.466 16.519 80.7647 16.1223 80.984C15.7256 81.1987 15.2823 81.306 14.7923 81.306ZM14.7923 80.683C15.1516 80.683 15.4736 80.6013 15.7583 80.438C16.0476 80.2747 16.274 80.0507 16.4373 79.766C16.6053 79.4767 16.6893 79.1547 16.6893 78.8C16.6893 78.4453 16.6053 78.1257 16.4373 77.841C16.274 77.5517 16.0476 77.3253 15.7583 77.162C15.4736 76.9987 15.1516 76.917 14.7923 76.917C14.433 76.917 14.1063 76.9987 13.8123 77.162C13.523 77.3253 13.2943 77.5517 13.1263 77.841C12.963 78.1257 12.8813 78.4453 12.8813 78.8C12.8813 79.1547 12.963 79.4767 13.1263 79.766C13.2943 80.0507 13.523 80.2747 13.8123 80.438C14.1063 80.6013 14.433 80.683 14.7923 80.683ZM25.4732 76.35V81.25H24.8992L21.9592 77.596V81.25H21.2592V76.35H21.8332L24.7732 80.004V76.35H25.4732ZM31.1679 81.306C30.7992 81.306 30.4422 81.25 30.0969 81.138C29.7562 81.0213 29.4879 80.872 29.2919 80.69L29.5509 80.144C29.7375 80.312 29.9755 80.4497 30.2649 80.557C30.5589 80.6597 30.8599 80.711 31.1679 80.711C31.5739 80.711 31.8772 80.6433 32.0779 80.508C32.2785 80.368 32.3789 80.1837 32.3789 79.955C32.3789 79.787 32.3229 79.6517 32.2109 79.549C32.1035 79.4417 31.9682 79.36 31.8049 79.304C31.6462 79.248 31.4199 79.185 31.1259 79.115C30.7572 79.0263 30.4585 78.9377 30.2299 78.849C30.0059 78.7603 29.8122 78.625 29.6489 78.443C29.4902 78.2563 29.4109 78.0067 29.4109 77.694C29.4109 77.4327 29.4785 77.197 29.6139 76.987C29.7539 76.777 29.9639 76.609 30.2439 76.483C30.5239 76.357 30.8715 76.294 31.2869 76.294C31.5762 76.294 31.8609 76.3313 32.1409 76.406C32.4209 76.4807 32.6612 76.588 32.8619 76.728L32.6309 77.288C32.4255 77.1573 32.2062 77.0593 31.9729 76.994C31.7395 76.924 31.5109 76.889 31.2869 76.889C30.8902 76.889 30.5915 76.9613 30.3909 77.106C30.1949 77.2507 30.0969 77.4373 30.0969 77.666C30.0969 77.834 30.1529 77.9717 30.2649 78.079C30.3769 78.1817 30.5145 78.2633 30.6779 78.324C30.8459 78.38 31.0722 78.4407 31.3569 78.506C31.7255 78.5947 32.0219 78.6833 32.2459 78.772C32.4699 78.8607 32.6612 78.996 32.8199 79.178C32.9832 79.36 33.0649 79.605 33.0649 79.913C33.0649 80.1697 32.9949 80.4053 32.8549 80.62C32.7149 80.83 32.5025 80.998 32.2179 81.124C31.9332 81.2453 31.5832 81.306 31.1679 81.306ZM37.7922 76.959H36.1122V76.35H40.1652V76.959H38.4852V81.25H37.7922V76.959ZM47.0036 81.25L45.9466 79.745C45.8159 79.7543 45.7132 79.759 45.6386 79.759H44.4276V81.25H43.7276V76.35H45.6386C46.2732 76.35 46.7726 76.5017 47.1366 76.805C47.5006 77.1083 47.6826 77.526 47.6826 78.058C47.6826 78.436 47.5892 78.758 47.4026 79.024C47.2159 79.29 46.9499 79.4837 46.6046 79.605L47.7666 81.25H47.0036ZM45.6176 79.164C46.0609 79.164 46.3992 79.0683 46.6326 78.877C46.8659 78.6857 46.9826 78.4127 46.9826 78.058C46.9826 77.7033 46.8659 77.4327 46.6326 77.246C46.3992 77.0547 46.0609 76.959 45.6176 76.959H44.4276V79.164H45.6176ZM53.6435 81.306C52.9902 81.306 52.4815 81.1193 52.1175 80.746C51.7535 80.3727 51.5715 79.836 51.5715 79.136V76.35H52.2715V79.108C52.2715 80.158 52.7312 80.683 53.6505 80.683C54.0985 80.683 54.4415 80.5547 54.6795 80.298C54.9175 80.0367 55.0365 79.64 55.0365 79.108V76.35H55.7155V79.136C55.7155 79.8407 55.5335 80.3797 55.1695 80.753C54.8055 81.1217 54.2968 81.306 53.6435 81.306ZM62.1416 81.306C61.6516 81.306 61.2083 81.1987 60.8116 80.984C60.4196 80.7647 60.1116 80.466 59.8876 80.088C59.6636 79.7053 59.5516 79.276 59.5516 78.8C59.5516 78.324 59.6636 77.897 59.8876 77.519C60.1116 77.1363 60.422 76.8377 60.8186 76.623C61.2153 76.4037 61.6586 76.294 62.1486 76.294C62.5313 76.294 62.8813 76.3593 63.1986 76.49C63.516 76.616 63.7866 76.805 64.0106 77.057L63.5556 77.498C63.187 77.1107 62.7273 76.917 62.1766 76.917C61.8126 76.917 61.4836 76.9987 61.1896 77.162C60.8956 77.3253 60.6646 77.5517 60.4966 77.841C60.3333 78.1257 60.2516 78.4453 60.2516 78.8C60.2516 79.1547 60.3333 79.4767 60.4966 79.766C60.6646 80.0507 60.8956 80.2747 61.1896 80.438C61.4836 80.6013 61.8126 80.683 62.1766 80.683C62.7226 80.683 63.1823 80.487 63.5556 80.095L64.0106 80.536C63.7866 80.788 63.5136 80.9793 63.1916 81.11C62.8743 81.2407 62.5243 81.306 62.1416 81.306ZM68.7275 76.959H67.0475V76.35H71.1005V76.959H69.4205V81.25H68.7275V76.959ZM74.6629 76.35H75.3629V81.25H74.6629V76.35ZM81.8419 81.306C81.3473 81.306 80.9016 81.1987 80.5049 80.984C80.1083 80.7647 79.7956 80.4637 79.5669 80.081C79.3429 79.6983 79.2309 79.2713 79.2309 78.8C79.2309 78.3287 79.3429 77.9017 79.5669 77.519C79.7956 77.1363 80.1083 76.8377 80.5049 76.623C80.9016 76.4037 81.3473 76.294 81.8419 76.294C82.3319 76.294 82.7753 76.4037 83.1719 76.623C83.5686 76.8377 83.8789 77.1363 84.1029 77.519C84.3269 77.897 84.4389 78.324 84.4389 78.8C84.4389 79.276 84.3269 79.7053 84.1029 80.088C83.8789 80.466 83.5686 80.7647 83.1719 80.984C82.7753 81.1987 82.3319 81.306 81.8419 81.306ZM81.8419 80.683C82.2013 80.683 82.5233 80.6013 82.8079 80.438C83.0973 80.2747 83.3236 80.0507 83.4869 79.766C83.6549 79.4767 83.7389 79.1547 83.7389 78.8C83.7389 78.4453 83.6549 78.1257 83.4869 77.841C83.3236 77.5517 83.0973 77.3253 82.8079 77.162C82.5233 76.9987 82.2013 76.917 81.8419 76.917C81.4826 76.917 81.1559 76.9987 80.8619 77.162C80.5726 77.3253 80.3439 77.5517 80.1759 77.841C80.0126 78.1257 79.9309 78.4453 79.9309 78.8C79.9309 79.1547 80.0126 79.4767 80.1759 79.766C80.3439 80.0507 80.5726 80.2747 80.8619 80.438C81.1559 80.6013 81.4826 80.683 81.8419 80.683ZM92.5228 76.35V81.25H91.9488L89.0088 77.596V81.25H88.3088V76.35H88.8828L91.8228 80.004V76.35H92.5228Z" fill="#2B4248"/>
</svg>
