<svg width="116" height="49" viewBox="0 0 116 49" fill="none" xmlns="http://www.w3.org/2000/svg">
<path d="M3.84934 5.546C4.54268 5.546 5.11868 5.722 5.57734 6.074C6.03601 6.426 6.34534 6.90333 6.50534 7.506H5.53734C5.40401 7.16467 5.19068 6.89533 4.89734 6.698C4.60934 6.49533 4.25468 6.394 3.83334 6.394C3.49734 6.394 3.19601 6.47667 2.92934 6.642C2.66801 6.80733 2.46001 7.04467 2.30534 7.354C2.15601 7.658 2.08134 8.01533 2.08134 8.426C2.08134 8.83133 2.15601 9.18867 2.30534 9.498C2.46001 9.802 2.66801 10.0367 2.92934 10.202C3.19601 10.3673 3.49734 10.45 3.83334 10.45C4.25468 10.45 4.60934 10.3513 4.89734 10.154C5.19068 9.95133 5.40401 9.682 5.53734 9.346H6.50534C6.34534 9.94867 6.03601 10.426 5.57734 10.778C5.11868 11.1247 4.54268 11.298 3.84934 11.298C3.31601 11.298 2.84401 11.178 2.43334 10.938C2.02268 10.6927 1.70534 10.354 1.48134 9.922C1.25734 9.48467 1.14534 8.986 1.14534 8.426C1.14534 7.866 1.25734 7.37 1.48134 6.938C1.70534 6.50067 2.02268 6.15933 2.43334 5.914C2.84401 5.66867 3.31601 5.546 3.84934 5.546ZM14.8313 5.53C15.3539 5.53 15.8259 5.65267 16.2473 5.898C16.6739 6.14333 17.0073 6.48733 17.2473 6.93C17.4926 7.36733 17.6153 7.86333 17.6153 8.418C17.6153 8.97267 17.4926 9.47133 17.2473 9.914C17.0073 10.3513 16.6739 10.6953 16.2473 10.946C15.8259 11.1913 15.3539 11.314 14.8313 11.314C14.3033 11.314 13.8259 11.1913 13.3993 10.946C12.9779 10.6953 12.6446 10.3513 12.3993 9.914C12.1539 9.47133 12.0313 8.97267 12.0313 8.418C12.0313 7.86333 12.1539 7.36733 12.3993 6.93C12.6446 6.48733 12.9779 6.14333 13.3993 5.898C13.8259 5.65267 14.3033 5.53 14.8313 5.53ZM14.8313 6.378C14.4686 6.378 14.1459 6.46067 13.8633 6.626C13.5806 6.79133 13.3593 7.02867 13.1993 7.338C13.0446 7.64733 12.9673 8.00733 12.9673 8.418C12.9673 8.82867 13.0446 9.18867 13.1993 9.498C13.3593 9.80733 13.5806 10.0447 13.8633 10.21C14.1459 10.3753 14.4686 10.458 14.8313 10.458C15.1886 10.458 15.5059 10.3753 15.7833 10.21C16.0659 10.0447 16.2846 9.80733 16.4393 9.498C16.5993 9.18867 16.6793 8.82867 16.6793 8.418C16.6793 8.00733 16.5993 7.64733 16.4393 7.338C16.2846 7.02867 16.0659 6.79133 15.7833 6.626C15.5059 6.46067 15.1886 6.378 14.8313 6.378ZM27.9036 11.25H26.9916L24.2476 7.082V11.25H23.3356V5.61H24.2476L26.9916 9.794V5.61H27.9036V11.25ZM37.5195 9.746C37.5195 10.0233 37.4528 10.282 37.3195 10.522C37.1861 10.7567 36.9835 10.946 36.7115 11.09C36.4395 11.234 36.1061 11.306 35.7115 11.306C35.3275 11.306 34.9835 11.2393 34.6795 11.106C34.3755 10.9673 34.1328 10.7753 33.9515 10.53C33.7701 10.2847 33.6661 10.002 33.6395 9.682H34.6155C34.6421 9.92733 34.7461 10.138 34.9275 10.314C35.1141 10.49 35.3621 10.578 35.6715 10.578C35.9488 10.578 36.1621 10.5033 36.3115 10.354C36.4661 10.2047 36.5435 10.0127 36.5435 9.778C36.5435 9.57533 36.4875 9.41 36.3755 9.282C36.2635 9.14867 36.1248 9.04467 35.9595 8.97C35.7941 8.89533 35.5675 8.81 35.2795 8.714C34.9275 8.602 34.6395 8.49 34.4155 8.378C34.1968 8.266 34.0101 8.10333 33.8555 7.89C33.7008 7.67667 33.6235 7.39667 33.6235 7.05C33.6235 6.746 33.6981 6.47933 33.8475 6.25C33.9968 6.02067 34.2101 5.84467 34.4875 5.722C34.7648 5.594 35.0848 5.53 35.4475 5.53C36.0235 5.53 36.4795 5.66867 36.8155 5.946C37.1568 6.22333 37.3515 6.586 37.3995 7.034H36.4155C36.3781 6.82067 36.2768 6.63933 36.1115 6.49C35.9515 6.33533 35.7301 6.258 35.4475 6.258C35.1915 6.258 34.9861 6.32467 34.8315 6.458C34.6768 6.586 34.5995 6.77267 34.5995 7.018C34.5995 7.21 34.6528 7.37 34.7595 7.498C34.8661 7.62067 34.9995 7.71933 35.1595 7.794C35.3248 7.86333 35.5488 7.946 35.8315 8.042C36.1888 8.154 36.4795 8.26867 36.7035 8.386C36.9328 8.498 37.1248 8.66333 37.2795 8.882C37.4395 9.10067 37.5195 9.38867 37.5195 9.746ZM46.8645 5.602V6.338H45.2885V11.25H44.3685V6.338H42.8005V5.602H46.8645ZM55.313 11.25L53.905 8.994H53.257V11.25H52.345V5.602H54.337C54.9823 5.602 55.4703 5.75933 55.801 6.074C56.137 6.38867 56.305 6.80467 56.305 7.322C56.305 7.76467 56.1796 8.12733 55.929 8.41C55.6836 8.69267 55.3263 8.874 54.857 8.954L56.337 11.25H55.313ZM53.257 8.346H54.265C55.001 8.346 55.369 8.02067 55.369 7.37C55.369 7.06067 55.2783 6.82067 55.097 6.65C54.921 6.474 54.6436 6.386 54.265 6.386H53.257V8.346ZM62.7982 5.602V8.954C62.7982 9.45533 62.9076 9.82867 63.1262 10.074C63.3502 10.3193 63.6622 10.442 64.0622 10.442C64.4569 10.442 64.7636 10.3193 64.9822 10.074C65.2062 9.82867 65.3182 9.45533 65.3182 8.954V5.602H66.2302V8.954C66.2302 9.72733 66.0302 10.314 65.6302 10.714C65.2302 11.1087 64.7022 11.306 64.0462 11.306C63.3956 11.306 62.8729 11.1087 62.4782 10.714C62.0836 10.314 61.8862 9.72733 61.8862 8.954V5.602H62.7982ZM74.6134 5.546C75.3067 5.546 75.8827 5.722 76.3414 6.074C76.8001 6.426 77.1094 6.90333 77.2694 7.506H76.3014C76.1681 7.16467 75.9547 6.89533 75.6614 6.698C75.3734 6.49533 75.0187 6.394 74.5974 6.394C74.2614 6.394 73.9601 6.47667 73.6934 6.642C73.4321 6.80733 73.2241 7.04467 73.0694 7.354C72.9201 7.658 72.8454 8.01533 72.8454 8.426C72.8454 8.83133 72.9201 9.18867 73.0694 9.498C73.2241 9.802 73.4321 10.0367 73.6934 10.202C73.9601 10.3673 74.2614 10.45 74.5974 10.45C75.0187 10.45 75.3734 10.3513 75.6614 10.154C75.9547 9.95133 76.1681 9.682 76.3014 9.346H77.2694C77.1094 9.94867 76.8001 10.426 76.3414 10.778C75.8827 11.1247 75.3067 11.298 74.6134 11.298C74.0801 11.298 73.6081 11.178 73.1974 10.938C72.7867 10.6927 72.4694 10.354 72.2454 9.922C72.0214 9.48467 71.9094 8.986 71.9094 8.426C71.9094 7.866 72.0214 7.37 72.2454 6.938C72.4694 6.50067 72.7867 6.15933 73.1974 5.914C73.6081 5.66867 74.0801 5.546 74.6134 5.546ZM86.6113 5.602V6.338H85.0353V11.25H84.1153V6.338H82.5473V5.602H86.6113ZM93.0038 5.602V11.25H92.0918V5.602H93.0038ZM101.523 5.53C102.046 5.53 102.518 5.65267 102.939 5.898C103.366 6.14333 103.699 6.48733 103.939 6.93C104.185 7.36733 104.307 7.86333 104.307 8.418C104.307 8.97267 104.185 9.47133 103.939 9.914C103.699 10.3513 103.366 10.6953 102.939 10.946C102.518 11.1913 102.046 11.314 101.523 11.314C100.995 11.314 100.518 11.1913 100.091 10.946C99.6701 10.6953 99.3368 10.3513 99.0915 9.914C98.8461 9.47133 98.7235 8.97267 98.7235 8.418C98.7235 7.86333 98.8461 7.36733 99.0915 6.93C99.3368 6.48733 99.6701 6.14333 100.091 5.898C100.518 5.65267 100.995 5.53 101.523 5.53ZM101.523 6.378C101.161 6.378 100.838 6.46067 100.555 6.626C100.273 6.79133 100.051 7.02867 99.8915 7.338C99.7368 7.64733 99.6595 8.00733 99.6595 8.418C99.6595 8.82867 99.7368 9.18867 99.8915 9.498C100.051 9.80733 100.273 10.0447 100.555 10.21C100.838 10.3753 101.161 10.458 101.523 10.458C101.881 10.458 102.198 10.3753 102.475 10.21C102.758 10.0447 102.977 9.80733 103.131 9.498C103.291 9.18867 103.371 8.82867 103.371 8.418C103.371 8.00733 103.291 7.64733 103.131 7.338C102.977 7.02867 102.758 6.79133 102.475 6.626C102.198 6.46067 101.881 6.378 101.523 6.378ZM114.596 11.25H113.684L110.94 7.082V11.25H110.028V5.61H110.94L113.684 9.794V5.61H114.596V11.25ZM6.17734 24.418C6.17734 24.9887 6.06001 25.4873 5.82534 25.914C5.59601 26.3353 5.25734 26.6633 4.80934 26.898C4.36668 27.1327 3.83601 27.25 3.21734 27.25H1.32934V21.602H3.21734C3.83601 21.602 4.36668 21.7193 4.80934 21.954C5.25734 22.1833 5.59601 22.5087 5.82534 22.93C6.06001 23.3513 6.17734 23.8473 6.17734 24.418ZM3.14534 26.426C3.82268 26.426 4.34268 26.25 4.70534 25.898C5.06801 25.546 5.24934 25.0527 5.24934 24.418C5.24934 23.7833 5.06801 23.29 4.70534 22.938C4.34268 22.586 3.82268 22.41 3.14534 22.41H2.24134V26.426H3.14534ZM12.807 22.338V24.05H14.887V24.754H12.807V26.506H15.127V27.25H11.895V21.602H15.127V22.338H12.807ZM24.5242 25.746C24.5242 26.0233 24.4575 26.282 24.3242 26.522C24.1908 26.7567 23.9882 26.946 23.7162 27.09C23.4442 27.234 23.1108 27.306 22.7162 27.306C22.3322 27.306 21.9882 27.2393 21.6842 27.106C21.3802 26.9673 21.1375 26.7753 20.9562 26.53C20.7748 26.2847 20.6708 26.002 20.6442 25.682H21.6202C21.6468 25.9273 21.7508 26.138 21.9322 26.314C22.1188 26.49 22.3668 26.578 22.6762 26.578C22.9535 26.578 23.1668 26.5033 23.3162 26.354C23.4708 26.2047 23.5482 26.0127 23.5482 25.778C23.5482 25.5753 23.4922 25.41 23.3802 25.282C23.2682 25.1487 23.1295 25.0447 22.9642 24.97C22.7988 24.8953 22.5722 24.81 22.2842 24.714C21.9322 24.602 21.6442 24.49 21.4202 24.378C21.2015 24.266 21.0148 24.1033 20.8602 23.89C20.7055 23.6767 20.6282 23.3967 20.6282 23.05C20.6282 22.746 20.7028 22.4793 20.8522 22.25C21.0015 22.0207 21.2148 21.8447 21.4922 21.722C21.7695 21.594 22.0895 21.53 22.4522 21.53C23.0282 21.53 23.4842 21.6687 23.8202 21.946C24.1615 22.2233 24.3562 22.586 24.4042 23.034H23.4202C23.3828 22.8207 23.2815 22.6393 23.1162 22.49C22.9562 22.3353 22.7348 22.258 22.4522 22.258C22.1962 22.258 21.9908 22.3247 21.8362 22.458C21.6815 22.586 21.6042 22.7727 21.6042 23.018C21.6042 23.21 21.6575 23.37 21.7642 23.498C21.8708 23.6207 22.0042 23.7193 22.1642 23.794C22.3295 23.8633 22.5535 23.946 22.8362 24.042C23.1935 24.154 23.4842 24.2687 23.7082 24.386C23.9375 24.498 24.1295 24.6633 24.2842 24.882C24.4442 25.1007 24.5242 25.3887 24.5242 25.746ZM31.1492 21.602V27.25H30.2372V21.602H31.1492ZM39.6368 21.554C40.3088 21.554 40.8688 21.7193 41.3168 22.05C41.7648 22.3807 42.0608 22.8313 42.2048 23.402H41.2448C41.1221 23.098 40.9194 22.8553 40.6368 22.674C40.3594 22.4927 40.0288 22.402 39.6448 22.402C39.2928 22.402 38.9754 22.4847 38.6928 22.65C38.4154 22.8153 38.1968 23.05 38.0368 23.354C37.8821 23.658 37.8048 24.0153 37.8048 24.426C37.8048 24.858 37.8848 25.2287 38.0448 25.538C38.2048 25.8473 38.4288 26.0847 38.7168 26.25C39.0101 26.41 39.3488 26.49 39.7328 26.49C40.2021 26.49 40.6048 26.346 40.9408 26.058C41.2768 25.7647 41.4794 25.3647 41.5488 24.858H39.4768V24.186H42.3168V25.058C42.2528 25.474 42.1034 25.8527 41.8688 26.194C41.6394 26.53 41.3328 26.7993 40.9488 27.002C40.5701 27.2047 40.1354 27.306 39.6448 27.306C39.0954 27.306 38.6101 27.1833 38.1888 26.938C37.7674 26.6927 37.4421 26.354 37.2128 25.922C36.9834 25.4847 36.8688 24.986 36.8688 24.426C36.8688 23.866 36.9834 23.37 37.2128 22.938C37.4421 22.5007 37.7648 22.162 38.1808 21.922C38.6021 21.6767 39.0874 21.554 39.6368 21.554ZM52.6083 27.25H51.6963L48.9523 23.082V27.25H48.0403V21.61H48.9523L51.6963 25.794V21.61H52.6083V27.25ZM5.04134 41.746C5.04134 42.0233 4.97468 42.282 4.84134 42.522C4.70801 42.7567 4.50534 42.946 4.23334 43.09C3.96134 43.234 3.62801 43.306 3.23334 43.306C2.84934 43.306 2.50534 43.2393 2.20134 43.106C1.89734 42.9673 1.65468 42.7753 1.47334 42.53C1.29201 42.2847 1.18801 42.002 1.16134 41.682H2.13734C2.16401 41.9273 2.26801 42.138 2.44934 42.314C2.63601 42.49 2.88401 42.578 3.19334 42.578C3.47068 42.578 3.68401 42.5033 3.83334 42.354C3.98801 42.2047 4.06534 42.0127 4.06534 41.778C4.06534 41.5753 4.00934 41.41 3.89734 41.282C3.78534 41.1487 3.64668 41.0447 3.48134 40.97C3.31601 40.8953 3.08934 40.81 2.80134 40.714C2.44934 40.602 2.16134 40.49 1.93734 40.378C1.71868 40.266 1.53201 40.1033 1.37734 39.89C1.22268 39.6767 1.14534 39.3967 1.14534 39.05C1.14534 38.746 1.22001 38.4793 1.36934 38.25C1.51868 38.0207 1.73201 37.8447 2.00934 37.722C2.28668 37.594 2.60668 37.53 2.96934 37.53C3.54534 37.53 4.00134 37.6687 4.33734 37.946C4.67868 38.2233 4.87334 38.586 4.92134 39.034H3.93734C3.90001 38.8207 3.79868 38.6393 3.63334 38.49C3.47334 38.3353 3.25201 38.258 2.96934 38.258C2.71334 38.258 2.50801 38.3247 2.35334 38.458C2.19868 38.586 2.12134 38.7727 2.12134 39.018C2.12134 39.21 2.17468 39.37 2.28134 39.498C2.38801 39.6207 2.52134 39.7193 2.68134 39.794C2.84668 39.8633 3.07068 39.946 3.35334 40.042C3.71068 40.154 4.00134 40.2687 4.22534 40.386C4.45468 40.498 4.64668 40.6633 4.80134 40.882C4.96134 41.1007 5.04134 41.3887 5.04134 41.746ZM14.3863 37.602V38.338H12.8103V43.25H11.8903V38.338H10.3223V37.602H14.3863ZM20.7388 37.602V40.954C20.7388 41.4553 20.8482 41.8287 21.0668 42.074C21.2908 42.3193 21.6028 42.442 22.0028 42.442C22.3975 42.442 22.7042 42.3193 22.9228 42.074C23.1468 41.8287 23.2588 41.4553 23.2588 40.954V37.602H24.1708V40.954C24.1708 41.7273 23.9708 42.314 23.5708 42.714C23.1708 43.1087 22.6428 43.306 21.9868 43.306C21.3362 43.306 20.8135 43.1087 20.4188 42.714C20.0242 42.314 19.8268 41.7273 19.8268 40.954V37.602H20.7388ZM34.882 40.418C34.882 40.9887 34.7647 41.4873 34.53 41.914C34.3007 42.3353 33.962 42.6633 33.514 42.898C33.0714 43.1327 32.5407 43.25 31.922 43.25H30.034V37.602H31.922C32.5407 37.602 33.0714 37.7193 33.514 37.954C33.962 38.1833 34.3007 38.5087 34.53 38.93C34.7647 39.3513 34.882 39.8473 34.882 40.418ZM31.85 42.426C32.5274 42.426 33.0474 42.25 33.41 41.898C33.7727 41.546 33.954 41.0527 33.954 40.418C33.954 39.7833 33.7727 39.29 33.41 38.938C33.0474 38.586 32.5274 38.41 31.85 38.41H30.946V42.426H31.85ZM41.5117 37.602V43.25H40.5997V37.602H41.5117ZM50.0313 37.53C50.5539 37.53 51.0259 37.6527 51.4473 37.898C51.8739 38.1433 52.2073 38.4873 52.4473 38.93C52.6926 39.3673 52.8153 39.8633 52.8153 40.418C52.8153 40.9727 52.6926 41.4713 52.4473 41.914C52.2073 42.3513 51.8739 42.6953 51.4473 42.946C51.0259 43.1913 50.5539 43.314 50.0313 43.314C49.5033 43.314 49.0259 43.1913 48.5993 42.946C48.1779 42.6953 47.8446 42.3513 47.5993 41.914C47.3539 41.4713 47.2313 40.9727 47.2313 40.418C47.2313 39.8633 47.3539 39.3673 47.5993 38.93C47.8446 38.4873 48.1779 38.1433 48.5993 37.898C49.0259 37.6527 49.5033 37.53 50.0313 37.53ZM50.0313 38.378C49.6686 38.378 49.3459 38.4607 49.0633 38.626C48.7806 38.7913 48.5593 39.0287 48.3993 39.338C48.2446 39.6473 48.1673 40.0073 48.1673 40.418C48.1673 40.8287 48.2446 41.1887 48.3993 41.498C48.5593 41.8073 48.7806 42.0447 49.0633 42.21C49.3459 42.3753 49.6686 42.458 50.0313 42.458C50.3886 42.458 50.7059 42.3753 50.9833 42.21C51.2659 42.0447 51.4846 41.8073 51.6393 41.498C51.7993 41.1887 51.8793 40.8287 51.8793 40.418C51.8793 40.0073 51.7993 39.6473 51.6393 39.338C51.4846 39.0287 51.2659 38.7913 50.9833 38.626C50.7059 38.4607 50.3886 38.378 50.0313 38.378Z" fill="#2B4248"/>
<rect x="60.7773" y="22.25" width="55" height="5" fill="#2B4248"/>
<rect x="60.7773" y="38.25" width="55" height="5" fill="#384E53"/>
</svg>
