<svg width="63" height="97" viewBox="0 0 63 97" fill="none" xmlns="http://www.w3.org/2000/svg">
<path d="M4.69734 78.276H2.31334L1.88134 79.5H0.905344L2.98534 73.94H4.03334L6.10534 79.5H5.12934L4.69734 78.276ZM4.44134 77.572L3.50534 74.932L2.56934 77.572H4.44134ZM14.5505 79.5L13.1425 77.244H12.4945V79.5H11.5825V73.852H13.5745C14.2198 73.852 14.7078 74.0093 15.0385 74.324C15.3745 74.6387 15.5425 75.0547 15.5425 75.572C15.5425 76.0147 15.4171 76.3773 15.1665 76.66C14.9211 76.9427 14.5638 77.124 14.0945 77.204L15.5745 79.5H14.5505ZM12.4945 76.596H13.5025C14.2385 76.596 14.6065 76.2707 14.6065 75.62C14.6065 75.3107 14.5158 75.0707 14.3345 74.9C14.1585 74.724 13.8811 74.636 13.5025 74.636H12.4945V76.596ZM23.6837 73.796C24.3771 73.796 24.9531 73.972 25.4117 74.324C25.8704 74.676 26.1797 75.1533 26.3397 75.756H25.3717C25.2384 75.4147 25.0251 75.1453 24.7317 74.948C24.4437 74.7453 24.0891 74.644 23.6677 74.644C23.3317 74.644 23.0304 74.7267 22.7637 74.892C22.5024 75.0573 22.2944 75.2947 22.1397 75.604C21.9904 75.908 21.9157 76.2653 21.9157 76.676C21.9157 77.0813 21.9904 77.4387 22.1397 77.748C22.2944 78.052 22.5024 78.2867 22.7637 78.452C23.0304 78.6173 23.3317 78.7 23.6677 78.7C24.0891 78.7 24.4437 78.6013 24.7317 78.404C25.0251 78.2013 25.2384 77.932 25.3717 77.596H26.3397C26.1797 78.1987 25.8704 78.676 25.4117 79.028C24.9531 79.3747 24.3771 79.548 23.6837 79.548C23.1504 79.548 22.6784 79.428 22.2677 79.188C21.8571 78.9427 21.5397 78.604 21.3157 78.172C21.0917 77.7347 20.9797 77.236 20.9797 76.676C20.9797 76.116 21.0917 75.62 21.3157 75.188C21.5397 74.7507 21.8571 74.4093 22.2677 74.164C22.6784 73.9187 23.1504 73.796 23.6837 73.796ZM36.5377 73.852V79.5H35.6177V76.964H32.9617V79.5H32.0497V73.852H32.9617V76.22H35.6177V73.852H36.5377ZM43.3554 73.852V79.5H42.4434V73.852H43.3554ZM52.891 73.852V74.588H51.315V79.5H50.395V74.588H48.827V73.852H52.891ZM59.2835 74.588V76.3H61.3635V77.004H59.2835V78.756H61.6035V79.5H58.3715V73.852H61.6035V74.588H59.2835ZM3.84934 86.796C4.54268 86.796 5.11868 86.972 5.57734 87.324C6.03601 87.676 6.34534 88.1533 6.50534 88.756H5.53734C5.40401 88.4147 5.19068 88.1453 4.89734 87.948C4.60934 87.7453 4.25468 87.644 3.83334 87.644C3.49734 87.644 3.19601 87.7267 2.92934 87.892C2.66801 88.0573 2.46001 88.2947 2.30534 88.604C2.15601 88.908 2.08134 89.2653 2.08134 89.676C2.08134 90.0813 2.15601 90.4387 2.30534 90.748C2.46001 91.052 2.66801 91.2867 2.92934 91.452C3.19601 91.6173 3.49734 91.7 3.83334 91.7C4.25468 91.7 4.60934 91.6013 4.89734 91.404C5.19068 91.2013 5.40401 90.932 5.53734 90.596H6.50534C6.34534 91.1987 6.03601 91.676 5.57734 92.028C5.11868 92.3747 4.54268 92.548 3.84934 92.548C3.31601 92.548 2.84401 92.428 2.43334 92.188C2.02268 91.9427 1.70534 91.604 1.48134 91.172C1.25734 90.7347 1.14534 90.236 1.14534 89.676C1.14534 89.116 1.25734 88.62 1.48134 88.188C1.70534 87.7507 2.02268 87.4093 2.43334 87.164C2.84401 86.9187 3.31601 86.796 3.84934 86.796ZM17.3673 86.852V87.588H15.7913V92.5H14.8713V87.588H13.3033V86.852H17.3673ZM25.2398 86.852V90.204C25.2398 90.7053 25.3491 91.0787 25.5678 91.324C25.7918 91.5693 26.1038 91.692 26.5038 91.692C26.8984 91.692 27.2051 91.5693 27.4238 91.324C27.6478 91.0787 27.7598 90.7053 27.7598 90.204V86.852H28.6718V90.204C28.6718 90.9773 28.4718 91.564 28.0718 91.964C27.6718 92.3587 27.1438 92.556 26.4878 92.556C25.8371 92.556 25.3144 92.3587 24.9198 91.964C24.5251 91.564 24.3278 90.9773 24.3278 90.204V86.852H25.2398ZM39.023 92.5L37.615 90.244H36.967V92.5H36.055V86.852H38.047C38.6923 86.852 39.1803 87.0093 39.511 87.324C39.847 87.6387 40.015 88.0547 40.015 88.572C40.015 89.0147 39.8896 89.3773 39.639 89.66C39.3936 89.9427 39.0363 90.124 38.567 90.204L40.047 92.5H39.023ZM36.967 89.596H37.975C38.711 89.596 39.079 89.2707 39.079 88.62C39.079 88.3107 38.9883 88.0707 38.807 87.9C38.631 87.724 38.3536 87.636 37.975 87.636H36.967V89.596ZM48.0682 87.588V89.3H50.1482V90.004H48.0682V91.756H50.3882V92.5H47.1562V86.852H50.3882V87.588H48.0682ZM61.3054 90.996C61.3054 91.2733 61.2387 91.532 61.1054 91.772C60.9721 92.0067 60.7694 92.196 60.4974 92.34C60.2254 92.484 59.8921 92.556 59.4974 92.556C59.1134 92.556 58.7694 92.4893 58.4654 92.356C58.1614 92.2173 57.9187 92.0253 57.7374 91.78C57.5561 91.5347 57.4521 91.252 57.4254 90.932H58.4014C58.4281 91.1773 58.5321 91.388 58.7134 91.564C58.9001 91.74 59.1481 91.828 59.4574 91.828C59.7347 91.828 59.9481 91.7533 60.0974 91.604C60.2521 91.4547 60.3294 91.2627 60.3294 91.028C60.3294 90.8253 60.2734 90.66 60.1614 90.532C60.0494 90.3987 59.9107 90.2947 59.7454 90.22C59.5801 90.1453 59.3534 90.06 59.0654 89.964C58.7134 89.852 58.4254 89.74 58.2014 89.628C57.9827 89.516 57.7961 89.3533 57.6414 89.14C57.4867 88.9267 57.4094 88.6467 57.4094 88.3C57.4094 87.996 57.4841 87.7293 57.6334 87.5C57.7827 87.2707 57.9961 87.0947 58.2734 86.972C58.5507 86.844 58.8707 86.78 59.2334 86.78C59.8094 86.78 60.2654 86.9187 60.6014 87.196C60.9427 87.4733 61.1374 87.836 61.1854 88.284H60.2014C60.1641 88.0707 60.0627 87.8893 59.8974 87.74C59.7374 87.5853 59.5161 87.508 59.2334 87.508C58.9774 87.508 58.7721 87.5747 58.6174 87.708C58.4627 87.836 58.3854 88.0227 58.3854 88.268C58.3854 88.46 58.4387 88.62 58.5454 88.748C58.6521 88.8707 58.7854 88.9693 58.9454 89.044C59.1107 89.1133 59.3347 89.196 59.6174 89.292C59.9747 89.404 60.2654 89.5187 60.4894 89.636C60.7187 89.748 60.9107 89.9133 61.0654 90.132C61.2254 90.3507 61.3054 90.6387 61.3054 90.996Z" fill="#2B4248"/>
<path d="M24.2773 67V26L38.7773 13.5V33L44.2773 29.5V67" stroke="#2B4248"/>
<path d="M32.2773 18.5V2L22.7773 11.5L15.7773 18.5V68.5" stroke="#2B4248"/>
</svg>
