<svg width="67" height="90" viewBox="0 0 67 90" fill="none" xmlns="http://www.w3.org/2000/svg">
<path d="M12.8573 84.814C12.324 84.814 11.86 84.6967 11.4653 84.462C11.076 84.2273 10.7747 83.894 10.5613 83.462C10.348 83.03 10.2413 82.5207 10.2413 81.934C10.2413 81.342 10.3453 80.83 10.5533 80.398C10.7667 79.9607 11.0707 79.6273 11.4653 79.398C11.86 79.1633 12.324 79.046 12.8573 79.046C13.396 79.046 13.8627 79.1633 14.2573 79.398C14.652 79.6273 14.9533 79.9607 15.1613 80.398C15.3747 80.83 15.4813 81.3393 15.4813 81.926C15.4813 82.5127 15.3747 83.0247 15.1613 83.462C14.9533 83.894 14.652 84.2273 14.2573 84.462C13.8627 84.6967 13.396 84.814 12.8573 84.814ZM12.8573 84.142C13.4227 84.142 13.8627 83.95 14.1773 83.566C14.492 83.182 14.6493 82.6353 14.6493 81.926C14.6493 81.2167 14.492 80.6727 14.1773 80.294C13.868 79.91 13.428 79.718 12.8573 79.718C12.2973 79.718 11.86 79.91 11.5453 80.294C11.236 80.6727 11.0813 81.2167 11.0813 81.926C11.0813 82.6353 11.236 83.182 11.5453 83.566C11.86 83.95 12.2973 84.142 12.8573 84.142ZM19.5332 80.766C19.6559 80.766 19.7519 80.8007 19.8212 80.87C19.8959 80.9393 19.9332 81.0353 19.9332 81.158V84.414C19.9332 84.526 19.8959 84.6167 19.8212 84.686C19.7466 84.7553 19.6479 84.79 19.5252 84.79C19.4132 84.79 19.3226 84.758 19.2532 84.694C19.1839 84.6247 19.1492 84.534 19.1492 84.422V84.118C19.0266 84.342 18.8559 84.5127 18.6372 84.63C18.4239 84.7473 18.1839 84.806 17.9172 84.806C16.9679 84.806 16.4932 84.2833 16.4932 83.238V81.158C16.4932 81.0353 16.5279 80.9393 16.5972 80.87C16.6719 80.8007 16.7732 80.766 16.9012 80.766C17.0239 80.766 17.1199 80.8007 17.1892 80.87C17.2639 80.9393 17.3012 81.0353 17.3012 81.158V83.23C17.3012 83.5447 17.3652 83.7767 17.4932 83.926C17.6212 84.0753 17.8186 84.15 18.0852 84.15C18.3999 84.15 18.6506 84.0487 18.8372 83.846C19.0292 83.6433 19.1252 83.374 19.1252 83.038V81.158C19.1252 81.0407 19.1626 80.9473 19.2372 80.878C19.3119 80.8033 19.4106 80.766 19.5332 80.766ZM22.9759 84.174C23.0932 84.1847 23.1759 84.2167 23.2239 84.27C23.2772 84.318 23.3039 84.3873 23.3039 84.478C23.3039 84.5847 23.2612 84.6673 23.1759 84.726C23.0959 84.7793 22.9759 84.8007 22.8159 84.79L22.5999 84.774C22.1679 84.742 21.8452 84.6113 21.6319 84.382C21.4186 84.1473 21.3119 83.8033 21.3119 83.35V81.47H20.8319C20.5972 81.47 20.4799 81.366 20.4799 81.158C20.4799 81.062 20.5092 80.9873 20.5679 80.934C20.6319 80.8753 20.7199 80.846 20.8319 80.846H21.3119V80.022C21.3119 79.8993 21.3466 79.8033 21.4159 79.734C21.4906 79.6647 21.5892 79.63 21.7119 79.63C21.8346 79.63 21.9332 79.6647 22.0079 79.734C22.0826 79.8033 22.1199 79.8993 22.1199 80.022V80.846H22.9119C23.0239 80.846 23.1092 80.8753 23.1679 80.934C23.2319 80.9873 23.2639 81.062 23.2639 81.158C23.2639 81.2593 23.2319 81.3367 23.1679 81.39C23.1092 81.4433 23.0239 81.47 22.9119 81.47H22.1199V83.406C22.1199 83.6567 22.1706 83.8407 22.2719 83.958C22.3786 84.0753 22.5386 84.142 22.7519 84.158L22.9759 84.174ZM24.2922 84.79C24.1749 84.79 24.0762 84.758 23.9962 84.694C23.9216 84.63 23.8842 84.534 23.8842 84.406V79.462C23.8842 79.334 23.9216 79.238 23.9962 79.174C24.0762 79.1047 24.1749 79.07 24.2922 79.07C24.4096 79.07 24.5056 79.1047 24.5802 79.174C24.6549 79.238 24.6922 79.334 24.6922 79.462V84.406C24.6922 84.534 24.6549 84.63 24.5802 84.694C24.5056 84.758 24.4096 84.79 24.2922 84.79ZM26.2297 84.79C26.1124 84.79 26.0137 84.758 25.9337 84.694C25.8591 84.63 25.8217 84.534 25.8217 84.406V81.158C25.8217 81.03 25.8591 80.934 25.9337 80.87C26.0137 80.8007 26.1124 80.766 26.2297 80.766C26.3471 80.766 26.4431 80.8007 26.5177 80.87C26.5924 80.934 26.6297 81.03 26.6297 81.158V84.406C26.6297 84.534 26.5924 84.63 26.5177 84.694C26.4431 84.758 26.3471 84.79 26.2297 84.79ZM26.2297 79.982C26.0751 79.982 25.9524 79.9393 25.8617 79.854C25.7711 79.7687 25.7257 79.6567 25.7257 79.518C25.7257 79.3793 25.7711 79.27 25.8617 79.19C25.9524 79.1047 26.0751 79.062 26.2297 79.062C26.3791 79.062 26.4991 79.1047 26.5897 79.19C26.6857 79.27 26.7337 79.3793 26.7337 79.518C26.7337 79.6567 26.6884 79.7687 26.5977 79.854C26.5071 79.9393 26.3844 79.982 26.2297 79.982ZM29.8632 80.75C30.7966 80.75 31.2632 81.2753 31.2632 82.326V84.406C31.2632 84.5287 31.2259 84.6247 31.1512 84.694C31.0819 84.758 30.9832 84.79 30.8552 84.79C30.7326 84.79 30.6339 84.7553 30.5592 84.686C30.4899 84.6167 30.4552 84.5233 30.4552 84.406V82.366C30.4552 82.0353 30.3886 81.7927 30.2552 81.638C30.1272 81.4833 29.9246 81.406 29.6472 81.406C29.3219 81.406 29.0606 81.5073 28.8632 81.71C28.6659 81.9127 28.5672 82.1847 28.5672 82.526V84.406C28.5672 84.5233 28.5299 84.6167 28.4552 84.686C28.3859 84.7553 28.2899 84.79 28.1672 84.79C28.0446 84.79 27.9459 84.7553 27.8712 84.686C27.7966 84.6167 27.7592 84.5233 27.7592 84.406V81.15C27.7592 81.038 27.7966 80.9473 27.8712 80.878C27.9512 80.8033 28.0499 80.766 28.1672 80.766C28.2846 80.766 28.3779 80.8007 28.4472 80.87C28.5166 80.9393 28.5512 81.03 28.5512 81.142V81.47C28.6792 81.2353 28.8579 81.0567 29.0872 80.934C29.3166 80.8113 29.5752 80.75 29.8632 80.75ZM35.4246 83.766C35.4993 83.766 35.5606 83.7953 35.6086 83.854C35.6566 83.9127 35.6806 83.9873 35.6806 84.078C35.6806 84.2327 35.5846 84.3633 35.3926 84.47C35.2059 84.5767 35.0006 84.6593 34.7766 84.718C34.5579 84.7767 34.3473 84.806 34.1446 84.806C33.5259 84.806 33.0379 84.6273 32.6806 84.27C32.3233 83.9073 32.1446 83.414 32.1446 82.79C32.1446 82.39 32.2219 82.0353 32.3766 81.726C32.5366 81.4167 32.7579 81.1767 33.0406 81.006C33.3286 80.8353 33.6539 80.75 34.0166 80.75C34.5393 80.75 34.9526 80.918 35.2566 81.254C35.5606 81.59 35.7126 82.0433 35.7126 82.614C35.7126 82.8273 35.6166 82.934 35.4246 82.934H32.9526C33.0059 83.7607 33.4033 84.174 34.1446 84.174C34.3419 84.174 34.5126 84.1473 34.6566 84.094C34.8006 84.0407 34.9526 83.9713 35.1126 83.886C35.1286 83.8753 35.1713 83.854 35.2406 83.822C35.3153 83.7847 35.3766 83.766 35.4246 83.766ZM34.0326 81.342C33.7233 81.342 33.4753 81.4407 33.2886 81.638C33.1019 81.8353 32.9899 82.1127 32.9526 82.47H35.0166C35.0006 82.1073 34.9073 81.83 34.7366 81.638C34.5713 81.4407 34.3366 81.342 34.0326 81.342ZM39.2163 84.79C39.0937 84.79 38.995 84.7527 38.9203 84.678C38.8457 84.598 38.8083 84.4967 38.8083 84.374V79.51C38.8083 79.3873 38.843 79.2913 38.9123 79.222C38.987 79.1473 39.0883 79.11 39.2163 79.11H42.0803C42.3363 79.11 42.4643 79.222 42.4643 79.446C42.4643 79.67 42.3363 79.782 42.0803 79.782H39.6243V81.55H41.9203C42.1763 81.55 42.3043 81.662 42.3043 81.886C42.3043 82.11 42.1763 82.222 41.9203 82.222H39.6243V84.374C39.6243 84.502 39.587 84.6033 39.5123 84.678C39.443 84.7527 39.3443 84.79 39.2163 84.79ZM43.6047 84.79C43.4874 84.79 43.3887 84.758 43.3087 84.694C43.2341 84.63 43.1967 84.534 43.1967 84.406V81.158C43.1967 81.03 43.2341 80.934 43.3087 80.87C43.3887 80.8007 43.4874 80.766 43.6047 80.766C43.7221 80.766 43.8181 80.8007 43.8927 80.87C43.9674 80.934 44.0047 81.03 44.0047 81.158V84.406C44.0047 84.534 43.9674 84.63 43.8927 84.694C43.8181 84.758 43.7221 84.79 43.6047 84.79ZM43.6047 79.982C43.4501 79.982 43.3274 79.9393 43.2367 79.854C43.1461 79.7687 43.1007 79.6567 43.1007 79.518C43.1007 79.3793 43.1461 79.27 43.2367 79.19C43.3274 79.1047 43.4501 79.062 43.6047 79.062C43.7541 79.062 43.8741 79.1047 43.9647 79.19C44.0607 79.27 44.1087 79.3793 44.1087 79.518C44.1087 79.6567 44.0634 79.7687 43.9727 79.854C43.8821 79.9393 43.7594 79.982 43.6047 79.982ZM47.1822 80.766C47.4382 80.75 47.5662 80.8593 47.5662 81.094C47.5662 81.2113 47.5369 81.2993 47.4782 81.358C47.4196 81.4167 47.3182 81.4513 47.1742 81.462L46.9342 81.486C46.5982 81.518 46.3476 81.6353 46.1822 81.838C46.0222 82.0407 45.9422 82.286 45.9422 82.574V84.406C45.9422 84.534 45.9049 84.63 45.8302 84.694C45.7556 84.758 45.6596 84.79 45.5422 84.79C45.4249 84.79 45.3262 84.758 45.2462 84.694C45.1716 84.63 45.1342 84.534 45.1342 84.406V81.15C45.1342 81.0273 45.1716 80.934 45.2462 80.87C45.3262 80.8007 45.4249 80.766 45.5422 80.766C45.6489 80.766 45.7369 80.8007 45.8062 80.87C45.8809 80.934 45.9182 81.0247 45.9182 81.142V81.526C46.0249 81.2913 46.1796 81.1127 46.3822 80.99C46.5849 80.8673 46.8142 80.7953 47.0702 80.774L47.1822 80.766ZM49.3848 84.806C48.8408 84.806 48.3955 84.694 48.0488 84.47C47.9528 84.4113 47.8835 84.35 47.8408 84.286C47.8035 84.222 47.7848 84.15 47.7848 84.07C47.7848 83.9847 47.8088 83.9127 47.8568 83.854C47.9048 83.7953 47.9662 83.766 48.0408 83.766C48.1102 83.766 48.2195 83.8087 48.3688 83.894C48.5288 83.9793 48.6835 84.0487 48.8328 84.102C48.9875 84.1553 49.1795 84.182 49.4088 84.182C49.6648 84.182 49.8648 84.1367 50.0088 84.046C50.1528 83.9553 50.2248 83.8273 50.2248 83.662C50.2248 83.5553 50.1955 83.47 50.1368 83.406C50.0835 83.342 49.9875 83.286 49.8488 83.238C49.7102 83.1847 49.5048 83.1287 49.2328 83.07C48.7635 82.9687 48.4248 82.8327 48.2168 82.662C48.0142 82.486 47.9128 82.2487 47.9128 81.95C47.9128 81.7207 47.9795 81.5153 48.1128 81.334C48.2462 81.1473 48.4302 81.0033 48.6648 80.902C48.8995 80.8007 49.1662 80.75 49.4648 80.75C49.6782 80.75 49.8862 80.7793 50.0888 80.838C50.2915 80.8913 50.4702 80.9713 50.6248 81.078C50.8008 81.1953 50.8888 81.3313 50.8888 81.486C50.8888 81.5713 50.8622 81.6433 50.8088 81.702C50.7608 81.7607 50.7022 81.79 50.6328 81.79C50.5848 81.79 50.5368 81.7793 50.4888 81.758C50.4408 81.7367 50.3768 81.702 50.2968 81.654C50.1528 81.5687 50.0168 81.502 49.8888 81.454C49.7662 81.406 49.6115 81.382 49.4248 81.382C49.2008 81.382 49.0195 81.43 48.8808 81.526C48.7475 81.622 48.6808 81.7527 48.6808 81.918C48.6808 82.0673 48.7422 82.1847 48.8648 82.27C48.9928 82.35 49.2302 82.4273 49.5768 82.502C49.9342 82.5767 50.2142 82.662 50.4168 82.758C50.6195 82.854 50.7635 82.974 50.8488 83.118C50.9395 83.2567 50.9848 83.4353 50.9848 83.654C50.9848 84.0007 50.8382 84.2807 50.5448 84.494C50.2568 84.702 49.8702 84.806 49.3848 84.806ZM53.7572 84.174C53.8745 84.1847 53.9572 84.2167 54.0052 84.27C54.0585 84.318 54.0852 84.3873 54.0852 84.478C54.0852 84.5847 54.0425 84.6673 53.9572 84.726C53.8772 84.7793 53.7572 84.8007 53.5972 84.79L53.3812 84.774C52.9492 84.742 52.6265 84.6113 52.4132 84.382C52.1998 84.1473 52.0932 83.8033 52.0932 83.35V81.47H51.6132C51.3785 81.47 51.2612 81.366 51.2612 81.158C51.2612 81.062 51.2905 80.9873 51.3492 80.934C51.4132 80.8753 51.5012 80.846 51.6132 80.846H52.0932V80.022C52.0932 79.8993 52.1278 79.8033 52.1972 79.734C52.2718 79.6647 52.3705 79.63 52.4932 79.63C52.6158 79.63 52.7145 79.6647 52.7892 79.734C52.8638 79.8033 52.9012 79.8993 52.9012 80.022V80.846H53.6932C53.8052 80.846 53.8905 80.8753 53.9492 80.934C54.0132 80.9873 54.0452 81.062 54.0452 81.158C54.0452 81.2593 54.0132 81.3367 53.9492 81.39C53.8905 81.4433 53.8052 81.47 53.6932 81.47H52.9012V83.406C52.9012 83.6567 52.9518 83.8407 53.0532 83.958C53.1598 84.0753 53.3198 84.142 53.5332 84.158L53.7572 84.174Z" fill="#2B4248"/>
<path d="M1.27734 49.25V0.75H65.2773V66.25H26.2773M1.27734 49.25V66.25H26.2773M1.27734 49.25H13.7773M26.2773 66.25V49.25H53.2773" stroke="#2B4248" stroke-width="1.5"/>
<path d="M25.7773 1.25V22.25M25.7773 33.75V22.25M25.7773 22.25H36.2773V7.75" stroke="#2B4248" stroke-width="1.5"/>
<path d="M65.2773 22.25H49.7773" stroke="#2B4248" stroke-width="1.5"/>
</svg>
