<svg width="108" height="107" viewBox="0 0 108 107" fill="none" xmlns="http://www.w3.org/2000/svg">
<path d="M10.3289 86.25L11.6249 79.77H12.8889L14.1849 86.25H13.0889L12.8329 84.754H11.7049L11.4409 86.25H10.3289ZM11.8249 84.002H12.7049L12.2649 81.282L11.8249 84.002ZM17.9653 86.25V79.77H19.5173C19.9547 79.77 20.3227 79.8233 20.6213 79.93C20.9253 80.0313 21.1547 80.2073 21.3093 80.458C21.4693 80.7087 21.5493 81.05 21.5493 81.482C21.5493 81.7433 21.5253 81.978 21.4773 82.186C21.4293 82.394 21.3467 82.5727 21.2293 82.722C21.1173 82.866 20.96 82.978 20.7573 83.058L21.6613 86.25H20.4773L19.6933 83.282H19.1493V86.25H17.9653ZM19.1493 82.538H19.5173C19.7467 82.538 19.928 82.506 20.0613 82.442C20.2 82.3727 20.2987 82.266 20.3573 82.122C20.416 81.9727 20.4453 81.7833 20.4453 81.554C20.4453 81.2287 20.384 80.986 20.2613 80.826C20.144 80.6607 19.9173 80.578 19.5813 80.578H19.1493V82.538ZM27.3225 86.338C26.8478 86.338 26.4745 86.2447 26.2025 86.058C25.9358 85.8713 25.7491 85.618 25.6425 85.298C25.5358 84.9727 25.4825 84.5993 25.4825 84.178V81.866C25.4825 81.4233 25.5358 81.0393 25.6425 80.714C25.7491 80.3887 25.9358 80.138 26.2025 79.962C26.4745 79.786 26.8478 79.698 27.3225 79.698C27.7705 79.698 28.1198 79.7753 28.3705 79.93C28.6265 80.0793 28.8078 80.2953 28.9145 80.578C29.0211 80.8607 29.0745 81.1887 29.0745 81.562V82.106H27.9385V81.546C27.9385 81.3647 27.9278 81.1993 27.9065 81.05C27.8905 80.9007 27.8398 80.7833 27.7545 80.698C27.6745 80.6073 27.5331 80.562 27.3305 80.562C27.1278 80.562 26.9785 80.61 26.8825 80.706C26.7918 80.7967 26.7331 80.922 26.7065 81.082C26.6798 81.2367 26.6665 81.4127 26.6665 81.61V84.426C26.6665 84.6607 26.6851 84.8553 26.7225 85.01C26.7598 85.1593 26.8265 85.274 26.9225 85.354C27.0238 85.4287 27.1598 85.466 27.3305 85.466C27.5278 85.466 27.6665 85.4207 27.7465 85.33C27.8318 85.234 27.8851 85.1087 27.9065 84.954C27.9278 84.7993 27.9385 84.626 27.9385 84.434V83.85H29.0745V84.37C29.0745 84.754 29.0238 85.0953 28.9225 85.394C28.8211 85.6873 28.6425 85.9193 28.3865 86.09C28.1358 86.2553 27.7811 86.338 27.3225 86.338ZM33.0748 86.25V79.77H34.2508V82.482H35.5708V79.77H36.7548V86.25H35.5708V83.322H34.2508V86.25H33.0748ZM40.9383 86.25V79.77H42.1063V86.25H40.9383ZM46.9174 86.25V80.642H45.8854V79.77H49.1174V80.642H48.1014V86.25H46.9174ZM52.8669 86.25V79.77H55.5869V80.602H54.0509V82.466H55.2589V83.29H54.0509V85.434H55.6029V86.25H52.8669ZM61.1928 86.338C60.7181 86.338 60.3448 86.2447 60.0728 86.058C59.8061 85.8713 59.6194 85.618 59.5128 85.298C59.4061 84.9727 59.3528 84.5993 59.3528 84.178V81.866C59.3528 81.4233 59.4061 81.0393 59.5128 80.714C59.6194 80.3887 59.8061 80.138 60.0728 79.962C60.3448 79.786 60.7181 79.698 61.1928 79.698C61.6408 79.698 61.9901 79.7753 62.2408 79.93C62.4968 80.0793 62.6781 80.2953 62.7848 80.578C62.8914 80.8607 62.9448 81.1887 62.9448 81.562V82.106H61.8088V81.546C61.8088 81.3647 61.7981 81.1993 61.7768 81.05C61.7608 80.9007 61.7101 80.7833 61.6248 80.698C61.5448 80.6073 61.4034 80.562 61.2008 80.562C60.9981 80.562 60.8488 80.61 60.7528 80.706C60.6621 80.7967 60.6034 80.922 60.5768 81.082C60.5501 81.2367 60.5368 81.4127 60.5368 81.61V84.426C60.5368 84.6607 60.5554 84.8553 60.5928 85.01C60.6301 85.1593 60.6968 85.274 60.7928 85.354C60.8941 85.4287 61.0301 85.466 61.2008 85.466C61.3981 85.466 61.5368 85.4207 61.6168 85.33C61.7021 85.234 61.7554 85.1087 61.7768 84.954C61.7981 84.7993 61.8088 84.626 61.8088 84.434V83.85H62.9448V84.37C62.9448 84.754 62.8941 85.0953 62.7928 85.394C62.6914 85.6873 62.5128 85.9193 62.2568 86.09C62.0061 86.2553 61.6514 86.338 61.1928 86.338ZM67.5771 86.25V80.642H66.5451V79.77H69.7771V80.642H68.7611V86.25H67.5771ZM75.3026 86.338C74.8226 86.338 74.4493 86.25 74.1826 86.074C73.9159 85.898 73.7319 85.6473 73.6306 85.322C73.5293 84.9967 73.4786 84.6073 73.4786 84.154V79.77H74.6306V84.29C74.6306 84.4927 74.6439 84.6847 74.6706 84.866C74.6973 85.042 74.7586 85.186 74.8546 85.298C74.9559 85.4047 75.1053 85.458 75.3026 85.458C75.5106 85.458 75.6599 85.4047 75.7506 85.298C75.8466 85.186 75.9079 85.042 75.9346 84.866C75.9666 84.6847 75.9826 84.4927 75.9826 84.29V79.77H77.1266V84.154C77.1266 84.6073 77.0759 84.9967 76.9746 85.322C76.8733 85.6473 76.6893 85.898 76.4226 86.074C76.1613 86.25 75.7879 86.338 75.3026 86.338ZM81.2178 86.25V79.77H82.7698C83.2072 79.77 83.5752 79.8233 83.8738 79.93C84.1778 80.0313 84.4072 80.2073 84.5618 80.458C84.7218 80.7087 84.8018 81.05 84.8018 81.482C84.8018 81.7433 84.7778 81.978 84.7298 82.186C84.6818 82.394 84.5992 82.5727 84.4818 82.722C84.3698 82.866 84.2125 82.978 84.0098 83.058L84.9138 86.25H83.7298L82.9458 83.282H82.4018V86.25H81.2178ZM82.4018 82.538H82.7698C82.9992 82.538 83.1805 82.506 83.3138 82.442C83.4525 82.3727 83.5512 82.266 83.6098 82.122C83.6685 81.9727 83.6978 81.7833 83.6978 81.554C83.6978 81.2287 83.6365 80.986 83.5138 80.826C83.3965 80.6607 83.1698 80.578 82.8338 80.578H82.4018V82.538ZM88.8466 86.25V79.77H91.5666V80.602H90.0306V82.466H91.2386V83.29H90.0306V85.434H91.5826V86.25H88.8466ZM97.0605 86.338C96.6711 86.338 96.3458 86.2633 96.0845 86.114C95.8231 85.9593 95.6258 85.7353 95.4925 85.442C95.3591 85.1487 95.2845 84.7887 95.2685 84.362L96.2845 84.162C96.2951 84.4127 96.3245 84.634 96.3725 84.826C96.4258 85.018 96.5031 85.1673 96.6045 85.274C96.7111 85.3753 96.8498 85.426 97.0205 85.426C97.2125 85.426 97.3485 85.37 97.4285 85.258C97.5085 85.1407 97.5485 84.994 97.5485 84.818C97.5485 84.5353 97.4845 84.3033 97.3565 84.122C97.2285 83.9407 97.0578 83.7593 96.8445 83.578L96.0285 82.858C95.7991 82.6607 95.6151 82.442 95.4765 82.202C95.3431 81.9567 95.2765 81.6553 95.2765 81.298C95.2765 80.786 95.4258 80.3913 95.7245 80.114C96.0231 79.8367 96.4311 79.698 96.9485 79.698C97.2525 79.698 97.5058 79.746 97.7085 79.842C97.9111 79.9327 98.0711 80.0607 98.1885 80.226C98.3111 80.3913 98.4018 80.5807 98.4605 80.794C98.5191 81.002 98.5565 81.2233 98.5725 81.458L97.5645 81.634C97.5538 81.4313 97.5298 81.25 97.4925 81.09C97.4605 80.93 97.3991 80.8047 97.3085 80.714C97.2231 80.6233 97.0951 80.578 96.9245 80.578C96.7485 80.578 96.6125 80.6367 96.5165 80.754C96.4258 80.866 96.3805 81.0073 96.3805 81.178C96.3805 81.3967 96.4258 81.578 96.5165 81.722C96.6071 81.8607 96.7378 82.0047 96.9085 82.154L97.7165 82.866C97.9831 83.09 98.2098 83.354 98.3965 83.658C98.5885 83.9567 98.6845 84.3193 98.6845 84.746C98.6845 85.0553 98.6151 85.33 98.4765 85.57C98.3431 85.81 98.1538 85.9993 97.9085 86.138C97.6685 86.2713 97.3858 86.338 97.0605 86.338ZM22.5121 102.25V95.77H25.1761V96.586H23.6961V98.474H24.9041V99.298H23.6961V102.25H22.5121ZM28.9533 102.25V95.77H30.5053C30.9426 95.77 31.3106 95.8233 31.6093 95.93C31.9133 96.0313 32.1426 96.2073 32.2973 96.458C32.4573 96.7087 32.5373 97.05 32.5373 97.482C32.5373 97.7433 32.5133 97.978 32.4653 98.186C32.4173 98.394 32.3346 98.5727 32.2173 98.722C32.1053 98.866 31.948 98.978 31.7453 99.058L32.6493 102.25H31.4653L30.6813 99.282H30.1373V102.25H28.9533ZM30.1373 98.538H30.5053C30.7346 98.538 30.916 98.506 31.0493 98.442C31.188 98.3727 31.2866 98.266 31.3453 98.122C31.404 97.9727 31.4333 97.7833 31.4333 97.554C31.4333 97.2287 31.372 96.986 31.2493 96.826C31.132 96.6607 30.9053 96.578 30.5693 96.578H30.1373V98.538ZM36.2697 102.25L37.5657 95.77H38.8297L40.1257 102.25H39.0297L38.7737 100.754H37.6457L37.3817 102.25H36.2697ZM37.7657 100.002H38.6457L38.2057 97.282L37.7657 100.002ZM43.9214 102.25L44.0334 95.77H45.2574L46.1774 100.258L47.1374 95.77H48.3214L48.4414 102.25H47.5614L47.4654 97.746L46.5454 102.25H45.8334L44.8974 97.73L44.8094 102.25H43.9214ZM52.5114 102.25V95.77H55.2314V96.602H53.6954V98.466H54.9034V99.29H53.6954V101.434H55.2474V102.25H52.5114ZM64.8786 102.25L63.9586 95.77H64.9506L65.4866 99.97L66.1586 95.786H66.9666L67.6546 99.97L68.1826 95.77H69.1586L68.2546 102.25H67.2946L66.5746 97.906L65.8626 102.25H64.8786ZM74.7749 102.338C74.3162 102.338 73.9509 102.253 73.6789 102.082C73.4069 101.911 73.2122 101.666 73.0949 101.346C72.9775 101.026 72.9189 100.647 72.9189 100.21V97.786C72.9189 97.3487 72.9775 96.9753 73.0949 96.666C73.2122 96.3513 73.4069 96.1113 73.6789 95.946C73.9509 95.7807 74.3162 95.698 74.7749 95.698C75.2442 95.698 75.6122 95.7807 75.8789 95.946C76.1509 96.1113 76.3455 96.3513 76.4629 96.666C76.5855 96.9753 76.6469 97.3487 76.6469 97.786V100.218C76.6469 100.65 76.5855 101.026 76.4629 101.346C76.3455 101.661 76.1509 101.906 75.8789 102.082C75.6122 102.253 75.2442 102.338 74.7749 102.338ZM74.7749 101.466C74.9722 101.466 75.1162 101.423 75.2069 101.338C75.3029 101.253 75.3669 101.135 75.3989 100.986C75.4309 100.837 75.4469 100.674 75.4469 100.498V97.514C75.4469 97.3327 75.4309 97.17 75.3989 97.026C75.3669 96.882 75.3029 96.77 75.2069 96.69C75.1162 96.6047 74.9722 96.562 74.7749 96.562C74.5882 96.562 74.4469 96.6047 74.3509 96.69C74.2549 96.77 74.1909 96.882 74.1589 97.026C74.1269 97.17 74.1109 97.3327 74.1109 97.514V100.498C74.1109 100.674 74.1242 100.837 74.1509 100.986C74.1829 101.135 74.2469 101.253 74.3429 101.338C74.4389 101.423 74.5829 101.466 74.7749 101.466ZM80.6827 102.25V95.77H82.2347C82.672 95.77 83.04 95.8233 83.3387 95.93C83.6427 96.0313 83.872 96.2073 84.0267 96.458C84.1867 96.7087 84.2667 97.05 84.2667 97.482C84.2667 97.7433 84.2427 97.978 84.1947 98.186C84.1467 98.394 84.064 98.5727 83.9467 98.722C83.8347 98.866 83.6774 98.978 83.4747 99.058L84.3787 102.25H83.1947L82.4107 99.282H81.8667V102.25H80.6827ZM81.8667 98.538H82.2347C82.464 98.538 82.6454 98.506 82.7787 98.442C82.9174 98.3727 83.016 98.266 83.0747 98.122C83.1334 97.9727 83.1627 97.7833 83.1627 97.554C83.1627 97.2287 83.1014 96.986 82.9787 96.826C82.8614 96.6607 82.6347 96.578 82.2987 96.578H81.8667V98.538ZM88.3114 102.25V95.77H89.4954V98.618L90.7754 95.77H91.9034L90.6634 98.666L92.0314 102.25H90.8554L89.7674 99.298L89.4954 99.794V102.25H88.3114Z" fill="#2B4248"/>
<path d="M0 68.25C2.91892 68.25 18.2432 68.25 25.5405 68.25V60.9674H54.3649V68.25H37.2162V44.2174H54.3649V56.5978H48.1622V32.5652H54.3649V11.0815L64.2162 1.25V20.5489V66.4293H68.9595V28.5598H60.5676V48.2228L85.0135 56.5978V68.25H108" stroke="#2B4248"/>
<path d="M56 12.25L62.5 5.75V26.25L59 26.75V32.75H56V12.25Z" stroke="#2B4248"/>
<path d="M39 46.25V59.25H46V46.25H39Z" fill="#2B4248"/>
</svg>
