<svg width="61" height="112" viewBox="0 0 61 112" fill="none" xmlns="http://www.w3.org/2000/svg">
<path d="M5 0.5V15L60.5 70.5" stroke="#2B4248"/>
<path d="M3 82L19 64.5L50.5 97" stroke="#2B4248"/>
<path d="M3 16V79.5L19.5 61.5L45.5 88.5V59L3 16Z" fill="#2B4248" stroke="#2B4248"/>
<path d="M14 27L59.5 72" stroke="#2B4248"/>
<path d="M3 54.5V0" stroke="#2B4248"/>
<path d="M19 62L51.5 95.5" stroke="#2B4248"/>
<path d="M8.50781 88.5V95.5H6.88781V92.63H3.70781V95.5H2.08781V88.5H3.70781V91.26H6.88781V88.5H8.50781ZM12.614 95.58C12.0473 95.58 11.5373 95.4633 11.084 95.23C10.6373 94.99 10.2873 94.66 10.034 94.24C9.78065 93.82 9.65398 93.3433 9.65398 92.81C9.65398 92.2767 9.78065 91.8 10.034 91.38C10.2873 90.96 10.6373 90.6333 11.084 90.4C11.5373 90.16 12.0473 90.04 12.614 90.04C13.1807 90.04 13.6873 90.16 14.134 90.4C14.5807 90.6333 14.9307 90.96 15.184 91.38C15.4373 91.8 15.564 92.2767 15.564 92.81C15.564 93.3433 15.4373 93.82 15.184 94.24C14.9307 94.66 14.5807 94.99 14.134 95.23C13.6873 95.4633 13.1807 95.58 12.614 95.58ZM12.614 94.3C13.014 94.3 13.3407 94.1667 13.594 93.9C13.854 93.6267 13.984 93.2633 13.984 92.81C13.984 92.3567 13.854 91.9967 13.594 91.73C13.3407 91.4567 13.014 91.32 12.614 91.32C12.214 91.32 11.884 91.4567 11.624 91.73C11.364 91.9967 11.234 92.3567 11.234 92.81C11.234 93.2633 11.364 93.6267 11.624 93.9C11.884 94.1667 12.214 94.3 12.614 94.3ZM23.4967 90.04C24.1701 90.04 24.7034 90.24 25.0967 90.64C25.4967 91.0333 25.6967 91.6267 25.6967 92.42V95.5H24.1367V92.66C24.1367 92.2333 24.0467 91.9167 23.8667 91.71C23.6934 91.4967 23.4434 91.39 23.1167 91.39C22.7501 91.39 22.4601 91.51 22.2467 91.75C22.0334 91.9833 21.9267 92.3333 21.9267 92.8V95.5H20.3667V92.66C20.3667 91.8133 20.0267 91.39 19.3467 91.39C18.9867 91.39 18.7001 91.51 18.4867 91.75C18.2734 91.9833 18.1667 92.3333 18.1667 92.8V95.5H16.6067V90.12H18.0967V90.74C18.2967 90.5133 18.5401 90.34 18.8267 90.22C19.1201 90.1 19.4401 90.04 19.7867 90.04C20.1667 90.04 20.5101 90.1167 20.8167 90.27C21.1234 90.4167 21.3701 90.6333 21.5567 90.92C21.7767 90.64 22.0534 90.4233 22.3867 90.27C22.7267 90.1167 23.0967 90.04 23.4967 90.04ZM32.4236 92.83C32.4236 92.85 32.4136 92.99 32.3936 93.25H28.3236C28.3969 93.5833 28.5703 93.8467 28.8436 94.04C29.1169 94.2333 29.4569 94.33 29.8636 94.33C30.1436 94.33 30.3903 94.29 30.6036 94.21C30.8236 94.1233 31.0269 93.99 31.2136 93.81L32.0436 94.71C31.5369 95.29 30.7969 95.58 29.8236 95.58C29.2169 95.58 28.6803 95.4633 28.2136 95.23C27.7469 94.99 27.3869 94.66 27.1336 94.24C26.8803 93.82 26.7536 93.3433 26.7536 92.81C26.7536 92.2833 26.8769 91.81 27.1236 91.39C27.3769 90.9633 27.7203 90.6333 28.1536 90.4C28.5936 90.16 29.0836 90.04 29.6236 90.04C30.1503 90.04 30.6269 90.1533 31.0536 90.38C31.4803 90.6067 31.8136 90.9333 32.0536 91.36C32.3003 91.78 32.4236 92.27 32.4236 92.83ZM29.6336 91.22C29.2803 91.22 28.9836 91.32 28.7436 91.52C28.5036 91.72 28.3569 91.9933 28.3036 92.34H30.9536C30.9003 92 30.7536 91.73 30.5136 91.53C30.2736 91.3233 29.9803 91.22 29.6336 91.22Z" fill="#2B4248"/>
<path d="M1.64188 98.5H4.41188C5.13854 98.5 5.78188 98.65 6.34188 98.95C6.90854 99.25 7.34854 99.6667 7.66188 100.2C7.97521 100.727 8.13188 101.327 8.13188 102C8.13188 102.673 7.97521 103.277 7.66188 103.81C7.34854 104.337 6.90854 104.75 6.34188 105.05C5.78188 105.35 5.13854 105.5 4.41188 105.5H1.64188V98.5ZM4.37188 105.04C5.01854 105.04 5.58854 104.913 6.08188 104.66C6.57521 104.4 6.95521 104.04 7.22188 103.58C7.48854 103.12 7.62188 102.593 7.62188 102C7.62188 101.407 7.48854 100.88 7.22188 100.42C6.95521 99.96 6.57521 99.6033 6.08188 99.35C5.58854 99.09 5.01854 98.96 4.37188 98.96H2.15188V105.04H4.37188ZM14.1536 103.01H9.66359C9.67693 103.417 9.78026 103.78 9.97359 104.1C10.1669 104.413 10.4269 104.657 10.7536 104.83C11.0869 105.003 11.4603 105.09 11.8736 105.09C12.2136 105.09 12.5269 105.03 12.8136 104.91C13.1069 104.783 13.3503 104.6 13.5436 104.36L13.8336 104.69C13.6069 104.963 13.3203 105.173 12.9736 105.32C12.6336 105.467 12.2636 105.54 11.8636 105.54C11.3436 105.54 10.8803 105.427 10.4736 105.2C10.0669 104.973 9.74693 104.66 9.51359 104.26C9.28693 103.86 9.17359 103.403 9.17359 102.89C9.17359 102.383 9.28026 101.93 9.49359 101.53C9.71359 101.123 10.0136 100.807 10.3936 100.58C10.7736 100.353 11.2003 100.24 11.6736 100.24C12.1469 100.24 12.5703 100.353 12.9436 100.58C13.3236 100.8 13.6203 101.11 13.8336 101.51C14.0536 101.91 14.1636 102.363 14.1636 102.87L14.1536 103.01ZM11.6736 100.68C11.3069 100.68 10.9769 100.763 10.6836 100.93C10.3903 101.09 10.1536 101.32 9.97359 101.62C9.80026 101.913 9.70026 102.247 9.67359 102.62H13.6736C13.6536 102.247 13.5536 101.913 13.3736 101.62C13.1936 101.327 12.9569 101.097 12.6636 100.93C12.3703 100.763 12.0403 100.68 11.6736 100.68ZM17.0304 105.54C16.6104 105.54 16.2104 105.477 15.8304 105.35C15.4504 105.223 15.1537 105.063 14.9404 104.87L15.1704 104.47C15.3837 104.65 15.6571 104.8 15.9904 104.92C16.3304 105.04 16.6837 105.1 17.0504 105.1C17.5771 105.1 17.9637 105.013 18.2104 104.84C18.4637 104.667 18.5904 104.427 18.5904 104.12C18.5904 103.9 18.5204 103.727 18.3804 103.6C18.2471 103.473 18.0804 103.38 17.8804 103.32C17.6804 103.26 17.4037 103.197 17.0504 103.13C16.6371 103.057 16.3037 102.977 16.0504 102.89C15.7971 102.803 15.5804 102.663 15.4004 102.47C15.2204 102.277 15.1304 102.01 15.1304 101.67C15.1304 101.257 15.3004 100.917 15.6404 100.65C15.9871 100.377 16.4771 100.24 17.1104 100.24C17.4437 100.24 17.7737 100.287 18.1004 100.38C18.4271 100.473 18.6937 100.597 18.9004 100.75L18.6704 101.15C18.4571 100.997 18.2137 100.88 17.9404 100.8C17.6671 100.72 17.3871 100.68 17.1004 100.68C16.6137 100.68 16.2471 100.77 16.0004 100.95C15.7537 101.13 15.6304 101.367 15.6304 101.66C15.6304 101.893 15.7004 102.077 15.8404 102.21C15.9804 102.337 16.1504 102.433 16.3504 102.5C16.5571 102.56 16.8437 102.627 17.2104 102.7C17.6171 102.773 17.9437 102.853 18.1904 102.94C18.4437 103.02 18.6571 103.153 18.8304 103.34C19.0037 103.527 19.0904 103.783 19.0904 104.11C19.0904 104.543 18.9104 104.89 18.5504 105.15C18.1904 105.41 17.6837 105.54 17.0304 105.54ZM20.4858 100.28H20.9858V105.5H20.4858V100.28ZM20.7358 99.01C20.6224 99.01 20.5258 98.9733 20.4458 98.9C20.3658 98.82 20.3258 98.7233 20.3258 98.61C20.3258 98.4967 20.3658 98.4 20.4458 98.32C20.5258 98.24 20.6224 98.2 20.7358 98.2C20.8491 98.2 20.9458 98.24 21.0258 98.32C21.1058 98.3933 21.1458 98.4867 21.1458 98.6C21.1458 98.7133 21.1058 98.81 21.0258 98.89C20.9458 98.97 20.8491 99.01 20.7358 99.01ZM27.7932 100.28V104.94C27.7932 105.807 27.5832 106.447 27.1632 106.86C26.7432 107.273 26.1099 107.48 25.2632 107.48C24.7832 107.48 24.3299 107.407 23.9032 107.26C23.4765 107.113 23.1332 106.91 22.8732 106.65L23.1432 106.27C23.4032 106.51 23.7165 106.697 24.0832 106.83C24.4499 106.963 24.8399 107.03 25.2532 107.03C25.9465 107.03 26.4599 106.863 26.7932 106.53C27.1265 106.203 27.2932 105.693 27.2932 105V104.12C27.0799 104.5 26.7832 104.793 26.4032 105C26.0232 105.207 25.5965 105.31 25.1232 105.31C24.6365 105.31 24.1932 105.203 23.7932 104.99C23.3999 104.77 23.0899 104.467 22.8632 104.08C22.6365 103.693 22.5232 103.257 22.5232 102.77C22.5232 102.283 22.6365 101.847 22.8632 101.46C23.0899 101.073 23.3999 100.773 23.7932 100.56C24.1932 100.347 24.6365 100.24 25.1232 100.24C25.6032 100.24 26.0365 100.347 26.4232 100.56C26.8099 100.773 27.1065 101.073 27.3132 101.46V100.28H27.7932ZM25.1632 104.86C25.5699 104.86 25.9365 104.773 26.2632 104.6C26.5899 104.42 26.8432 104.173 27.0232 103.86C27.2099 103.54 27.3032 103.177 27.3032 102.77C27.3032 102.363 27.2099 102.003 27.0232 101.69C26.8432 101.377 26.5899 101.133 26.2632 100.96C25.9365 100.78 25.5699 100.69 25.1632 100.69C24.7565 100.69 24.3899 100.78 24.0632 100.96C23.7432 101.133 23.4899 101.377 23.3032 101.69C23.1232 102.003 23.0332 102.363 23.0332 102.77C23.0332 103.177 23.1232 103.54 23.3032 103.86C23.4899 104.173 23.7432 104.42 24.0632 104.6C24.3899 104.773 24.7565 104.86 25.1632 104.86ZM32.4596 100.24C33.1129 100.24 33.6296 100.43 34.0096 100.81C34.3896 101.19 34.5796 101.737 34.5796 102.45V105.5H34.0796V102.49C34.0796 101.903 33.9296 101.457 33.6296 101.15C33.3363 100.843 32.9229 100.69 32.3896 100.69C31.7763 100.69 31.2929 100.873 30.9396 101.24C30.5863 101.607 30.4096 102.1 30.4096 102.72V105.5H29.9096V100.28H30.3896V101.41C30.5696 101.043 30.8363 100.757 31.1896 100.55C31.5496 100.343 31.9729 100.24 32.4596 100.24Z" fill="#2B4248"/>
</svg>
