<svg width="126" height="48" viewBox="0 0 126 48" fill="none" xmlns="http://www.w3.org/2000/svg">
<path d="M13.37 33.864C13.442 34.02 13.478 34.176 13.478 34.332C13.478 34.608 13.364 34.842 13.136 35.034C12.92 35.226 12.668 35.322 12.38 35.322C12.188 35.322 12.008 35.274 11.84 35.178C11.672 35.07 11.54 34.908 11.444 34.692L10.364 32.28H4.028L2.948 34.692C2.852 34.908 2.72 35.07 2.552 35.178C2.384 35.274 2.198 35.322 1.994 35.322C1.718 35.322 1.466 35.226 1.238 35.034C1.01 34.842 0.896 34.608 0.896 34.332C0.896 34.176 0.932 34.02 1.004 33.864L5.972 23.19C6.08 22.95 6.242 22.77 6.458 22.65C6.686 22.518 6.926 22.452 7.178 22.452C7.43 22.452 7.664 22.518 7.88 22.65C8.108 22.77 8.276 22.95 8.384 23.19L13.37 33.864ZM4.82 30.48H9.572L7.196 25.134L4.82 30.48ZM26.4594 33.792C26.6034 34.008 26.6754 34.218 26.6754 34.422C26.6754 34.698 26.5614 34.926 26.3334 35.106C26.1174 35.286 25.8594 35.376 25.5594 35.376C25.3674 35.376 25.1814 35.334 25.0014 35.25C24.8334 35.154 24.6894 35.016 24.5694 34.836L22.1754 31.2C21.9354 30.816 21.6774 30.546 21.4014 30.39C21.1374 30.234 20.7894 30.156 20.3574 30.156H18.5934V34.188C18.5934 34.548 18.4914 34.836 18.2874 35.052C18.0834 35.256 17.8074 35.358 17.4594 35.358C17.1114 35.358 16.8294 35.256 16.6134 35.052C16.4094 34.836 16.3074 34.548 16.3074 34.188V23.658C16.3074 23.31 16.4034 23.04 16.5954 22.848C16.7994 22.656 17.0754 22.56 17.4234 22.56H21.9234C23.3634 22.56 24.4554 22.884 25.1994 23.532C25.9554 24.168 26.3334 25.092 26.3334 26.304C26.3334 27.288 26.0514 28.098 25.4874 28.734C24.9354 29.358 24.1494 29.76 23.1294 29.94C23.4774 30.024 23.7834 30.174 24.0474 30.39C24.3114 30.606 24.5694 30.906 24.8214 31.29L26.4594 33.792ZM21.5994 28.374C22.4754 28.374 23.1174 28.212 23.5254 27.888C23.9334 27.552 24.1374 27.042 24.1374 26.358C24.1374 25.662 23.9334 25.158 23.5254 24.846C23.1174 24.522 22.4754 24.36 21.5994 24.36H18.5754V28.374H21.5994ZM35.4851 35.412C34.2611 35.412 33.1871 35.148 32.2631 34.62C31.3511 34.092 30.6491 33.336 30.1571 32.352C29.6651 31.368 29.4191 30.216 29.4191 28.896C29.4191 27.576 29.6651 26.43 30.1571 25.458C30.6491 24.474 31.3511 23.718 32.2631 23.19C33.1871 22.662 34.2611 22.398 35.4851 22.398C36.2771 22.398 37.0211 22.518 37.7171 22.758C38.4131 22.986 39.0311 23.322 39.5711 23.766C39.7271 23.886 39.8351 24.012 39.8951 24.144C39.9551 24.276 39.9851 24.438 39.9851 24.63C39.9851 24.894 39.9131 25.116 39.7691 25.296C39.6251 25.476 39.4511 25.566 39.2471 25.566C39.0071 25.566 38.7611 25.482 38.5091 25.314C37.9931 24.93 37.5131 24.666 37.0691 24.522C36.6251 24.366 36.1331 24.288 35.5931 24.288C34.3451 24.288 33.3971 24.678 32.7491 25.458C32.1131 26.238 31.7951 27.384 31.7951 28.896C31.7951 30.42 32.1131 31.572 32.7491 32.352C33.3971 33.132 34.3451 33.522 35.5931 33.522C36.1091 33.522 36.5831 33.444 37.0151 33.288C37.4591 33.132 37.9571 32.868 38.5091 32.496C38.6291 32.424 38.7491 32.364 38.8691 32.316C38.9891 32.268 39.1151 32.244 39.2471 32.244C39.4511 32.244 39.6251 32.334 39.7691 32.514C39.9131 32.694 39.9851 32.916 39.9851 33.18C39.9851 33.36 39.9551 33.522 39.8951 33.666C39.8351 33.798 39.7271 33.924 39.5711 34.044C39.0311 34.488 38.4131 34.83 37.7171 35.07C37.0211 35.298 36.2771 35.412 35.4851 35.412ZM53.0123 22.47C53.3603 22.47 53.6363 22.578 53.8403 22.794C54.0443 22.998 54.1463 23.274 54.1463 23.622V34.188C54.1463 34.536 54.0383 34.818 53.8223 35.034C53.6183 35.25 53.3483 35.358 53.0123 35.358C52.6643 35.358 52.3883 35.25 52.1843 35.034C51.9803 34.818 51.8783 34.536 51.8783 34.188V29.742H45.3803V34.188C45.3803 34.536 45.2723 34.818 45.0563 35.034C44.8523 35.25 44.5763 35.358 44.2283 35.358C43.8923 35.358 43.6163 35.25 43.4003 35.034C43.1963 34.818 43.0943 34.536 43.0943 34.188V23.622C43.0943 23.274 43.1963 22.998 43.4003 22.794C43.6043 22.578 43.8803 22.47 44.2283 22.47C44.5763 22.47 44.8523 22.578 45.0563 22.794C45.2723 22.998 45.3803 23.274 45.3803 23.622V27.87H51.8783V23.622C51.8783 23.274 51.9803 22.998 52.1843 22.794C52.3883 22.578 52.6643 22.47 53.0123 22.47ZM59.1076 35.358C58.7596 35.358 58.4776 35.25 58.2616 35.034C58.0576 34.818 57.9556 34.536 57.9556 34.188V23.622C57.9556 23.274 58.0576 22.998 58.2616 22.794C58.4776 22.578 58.7596 22.47 59.1076 22.47C59.4676 22.47 59.7496 22.578 59.9536 22.794C60.1696 22.998 60.2776 23.274 60.2776 23.622V34.188C60.2776 34.536 60.1696 34.818 59.9536 35.034C59.7496 35.25 59.4676 35.358 59.1076 35.358ZM71.2168 35.358C70.8688 35.358 70.5868 35.25 70.3708 35.034C70.1668 34.818 70.0648 34.536 70.0648 34.188V23.658C70.0648 23.31 70.1608 23.04 70.3528 22.848C70.5568 22.656 70.8328 22.56 71.1808 22.56H77.4988C78.2308 22.56 78.5968 22.872 78.5968 23.496C78.5968 24.108 78.2308 24.414 77.4988 24.414H72.3508V27.87H77.1388C77.8708 27.87 78.2368 28.182 78.2368 28.806C78.2368 29.418 77.8708 29.724 77.1388 29.724H72.3508V34.188C72.3508 34.536 72.2488 34.818 72.0448 35.034C71.8408 35.25 71.5648 35.358 71.2168 35.358ZM82.4381 35.25C82.0901 35.25 81.8201 35.154 81.6281 34.962C81.4361 34.77 81.3401 34.506 81.3401 34.17V23.622C81.3401 23.274 81.4421 22.998 81.6461 22.794C81.8621 22.578 82.1441 22.47 82.4921 22.47C82.8521 22.47 83.1341 22.578 83.3381 22.794C83.5541 22.998 83.6621 23.274 83.6621 23.622V33.342H88.7201C89.4401 33.342 89.8001 33.66 89.8001 34.296C89.8001 34.932 89.4401 35.25 88.7201 35.25H82.4381ZM97.3709 35.412C96.1349 35.412 95.0609 35.148 94.1489 34.62C93.2489 34.092 92.5529 33.336 92.0609 32.352C91.5689 31.368 91.3229 30.216 91.3229 28.896C91.3229 27.576 91.5629 26.43 92.0429 25.458C92.5349 24.474 93.2369 23.718 94.1489 23.19C95.0609 22.662 96.1349 22.398 97.3709 22.398C98.6069 22.398 99.6749 22.662 100.575 23.19C101.487 23.718 102.183 24.474 102.663 25.458C103.155 26.43 103.401 27.576 103.401 28.896C103.401 30.216 103.155 31.368 102.663 32.352C102.171 33.336 101.469 34.092 100.557 34.62C99.6569 35.148 98.5949 35.412 97.3709 35.412ZM97.3709 33.558C98.5349 33.558 99.4409 33.156 100.089 32.352C100.749 31.548 101.079 30.396 101.079 28.896C101.079 27.396 100.749 26.25 100.089 25.458C99.4409 24.654 98.5349 24.252 97.3709 24.252C96.1949 24.252 95.2769 24.654 94.6169 25.458C93.9689 26.25 93.6449 27.396 93.6449 28.896C93.6449 30.396 93.9689 31.548 94.6169 32.352C95.2769 33.156 96.1949 33.558 97.3709 33.558ZM122.422 23.172C122.506 22.932 122.638 22.752 122.818 22.632C123.01 22.512 123.22 22.452 123.448 22.452C123.736 22.452 123.982 22.542 124.186 22.722C124.402 22.902 124.51 23.142 124.51 23.442C124.51 23.55 124.48 23.706 124.42 23.91L120.55 34.62C120.454 34.86 120.292 35.046 120.064 35.178C119.848 35.31 119.608 35.376 119.344 35.376C119.08 35.376 118.834 35.31 118.606 35.178C118.378 35.046 118.222 34.86 118.138 34.62L115.15 26.142L112.108 34.62C112.012 34.86 111.85 35.046 111.622 35.178C111.406 35.31 111.166 35.376 110.902 35.376C110.638 35.376 110.392 35.31 110.164 35.178C109.948 35.046 109.798 34.86 109.714 34.62L105.844 23.91C105.784 23.73 105.754 23.574 105.754 23.442C105.754 23.142 105.862 22.902 106.078 22.722C106.306 22.542 106.57 22.452 106.87 22.452C107.11 22.452 107.326 22.512 107.518 22.632C107.71 22.752 107.848 22.932 107.932 23.172L110.992 31.974L114.142 23.226C114.226 22.986 114.364 22.8 114.556 22.668C114.748 22.524 114.958 22.452 115.186 22.452C115.414 22.452 115.624 22.524 115.816 22.668C116.02 22.8 116.164 22.992 116.248 23.244L119.308 32.082L122.422 23.172Z" fill="#2B4248"/>
<rect x="36.5" y="0.25" width="54" height="15" fill="#2B4248"/>
<path d="M43.06 11.322C42.6493 11.322 42.26 11.2687 41.892 11.162C41.5293 11.05 41.2333 10.9007 41.004 10.714C40.8813 10.6233 40.82 10.4953 40.82 10.33C40.82 10.218 40.852 10.122 40.916 10.042C40.9853 9.95667 41.0653 9.914 41.156 9.914C41.252 9.914 41.3613 9.95133 41.484 10.026C41.7133 10.1913 41.9533 10.3113 42.204 10.386C42.4547 10.4607 42.732 10.498 43.036 10.498C43.4253 10.498 43.724 10.4313 43.932 10.298C44.14 10.1593 44.244 9.95933 44.244 9.698C44.244 9.49533 44.1453 9.34067 43.948 9.234C43.756 9.122 43.4333 9.01533 42.98 8.914C42.5107 8.81267 42.1293 8.69533 41.836 8.562C41.5427 8.42867 41.3213 8.258 41.172 8.05C41.0227 7.842 40.948 7.578 40.948 7.258C40.948 6.92733 41.0413 6.63133 41.228 6.37C41.4147 6.10867 41.6733 5.906 42.004 5.762C42.34 5.61267 42.716 5.538 43.132 5.538C43.8947 5.538 44.516 5.74067 44.996 6.146C45.0653 6.20467 45.1133 6.26333 45.14 6.322C45.172 6.37533 45.188 6.44467 45.188 6.53C45.188 6.642 45.1533 6.74067 45.084 6.826C45.02 6.906 44.9427 6.946 44.852 6.946C44.7987 6.946 44.748 6.938 44.7 6.922C44.6573 6.906 44.5987 6.87667 44.524 6.834C44.3053 6.674 44.092 6.55667 43.884 6.482C43.6813 6.402 43.4307 6.362 43.132 6.362C42.7693 6.362 42.4813 6.43667 42.268 6.586C42.06 6.73 41.956 6.93267 41.956 7.194C41.956 7.41267 42.0493 7.58067 42.236 7.698C42.4227 7.81533 42.74 7.92467 43.188 8.026C43.6627 8.13267 44.0467 8.25267 44.34 8.386C44.6387 8.514 44.8653 8.67933 45.02 8.882C45.18 9.08467 45.26 9.338 45.26 9.642C45.26 9.97267 45.1667 10.266 44.98 10.522C44.7987 10.7727 44.54 10.97 44.204 11.114C43.8733 11.2527 43.492 11.322 43.06 11.322ZM51.1004 11.29C50.9404 11.29 50.8124 11.2447 50.7164 11.154C50.6257 11.058 50.5804 10.9327 50.5804 10.778V6.458H49.1244C48.8044 6.458 48.6444 6.31667 48.6444 6.034C48.6444 5.75133 48.8044 5.61 49.1244 5.61H53.0684C53.3884 5.61 53.5484 5.75133 53.5484 6.034C53.5484 6.31667 53.3884 6.458 53.0684 6.458H51.6124V10.778C51.6124 10.9327 51.5644 11.058 51.4684 11.154C51.3777 11.2447 51.255 11.29 51.1004 11.29ZM59.6466 11.322C58.8733 11.322 58.2866 11.122 57.8866 10.722C57.4866 10.322 57.2866 9.738 57.2866 8.97V6.082C57.2866 5.92733 57.332 5.80467 57.4226 5.714C57.5133 5.618 57.636 5.57 57.7906 5.57C57.9453 5.57 58.068 5.618 58.1586 5.714C58.2493 5.80467 58.2946 5.92733 58.2946 6.082V9.026C58.2946 9.51133 58.4093 9.87933 58.6386 10.13C58.868 10.3753 59.204 10.498 59.6466 10.498C60.084 10.498 60.4173 10.3727 60.6466 10.122C60.876 9.87133 60.9906 9.506 60.9906 9.026V6.082C60.9906 5.92733 61.036 5.80467 61.1266 5.714C61.2173 5.618 61.34 5.57 61.4946 5.57C61.6493 5.57 61.772 5.618 61.8626 5.714C61.9533 5.80467 61.9986 5.92733 61.9986 6.082V8.97C61.9986 9.73267 61.7986 10.3167 61.3986 10.722C60.9986 11.122 60.4146 11.322 59.6466 11.322ZM66.8418 11.25C66.6871 11.25 66.5645 11.2073 66.4738 11.122C66.3885 11.0367 66.3458 10.9167 66.3458 10.762V6.098C66.3458 5.94333 66.3885 5.82333 66.4738 5.738C66.5645 5.65267 66.6871 5.61 66.8418 5.61H68.4258C69.3485 5.61 70.0631 5.858 70.5698 6.354C71.0818 6.84467 71.3378 7.53533 71.3378 8.426C71.3378 9.322 71.0818 10.018 70.5698 10.514C70.0631 11.0047 69.3485 11.25 68.4258 11.25H66.8418ZM68.3618 10.41C69.6578 10.41 70.3058 9.74867 70.3058 8.426C70.3058 7.10867 69.6578 6.45 68.3618 6.45H67.3778V10.41H68.3618ZM76.0491 11.298C75.8944 11.298 75.7691 11.25 75.6731 11.154C75.5824 11.058 75.5371 10.9327 75.5371 10.778V6.082C75.5371 5.92733 75.5824 5.80467 75.6731 5.714C75.7691 5.618 75.8944 5.57 76.0491 5.57C76.2091 5.57 76.3344 5.618 76.4251 5.714C76.5211 5.80467 76.5691 5.92733 76.5691 6.082V10.778C76.5691 10.9327 76.5211 11.058 76.4251 11.154C76.3344 11.25 76.2091 11.298 76.0491 11.298ZM83.4591 11.322C82.9097 11.322 82.4324 11.2047 82.0271 10.97C81.6271 10.7353 81.3177 10.3993 81.0991 9.962C80.8804 9.52467 80.7711 9.01267 80.7711 8.426C80.7711 7.83933 80.8777 7.33 81.0911 6.898C81.3097 6.46067 81.6217 6.12467 82.0271 5.89C82.4324 5.65533 82.9097 5.538 83.4591 5.538C84.0084 5.538 84.4831 5.65533 84.8831 5.89C85.2884 6.12467 85.5977 6.46067 85.8111 6.898C86.0297 7.33 86.1391 7.83933 86.1391 8.426C86.1391 9.01267 86.0297 9.52467 85.8111 9.962C85.5924 10.3993 85.2804 10.7353 84.8751 10.97C84.4751 11.2047 84.0031 11.322 83.4591 11.322ZM83.4591 10.498C83.9764 10.498 84.3791 10.3193 84.6671 9.962C84.9604 9.60467 85.1071 9.09267 85.1071 8.426C85.1071 7.75933 84.9604 7.25 84.6671 6.898C84.3791 6.54067 83.9764 6.362 83.4591 6.362C82.9364 6.362 82.5284 6.54067 82.2351 6.898C81.9471 7.25 81.8031 7.75933 81.8031 8.426C81.8031 9.09267 81.9471 9.60467 82.2351 9.962C82.5284 10.3193 82.9364 10.498 83.4591 10.498Z" fill="#F4EDED"/>
</svg>
