<svg width="92" height="86" viewBox="0 0 92 86" fill="none" xmlns="http://www.w3.org/2000/svg">
<path d="M3.92285 68.9868C3.69824 68.9966 3.53548 69.0226 3.43457 69.0649C3.33366 69.1073 3.2653 69.1854 3.22949 69.2993C3.19368 69.4132 3.17578 69.5955 3.17578 69.8462V74.8071C3.17578 75.0578 3.19368 75.2401 3.22949 75.354C3.2653 75.4679 3.33366 75.5461 3.43457 75.5884C3.53548 75.6307 3.69824 75.6567 3.92285 75.6665V75.8667C3.56803 75.8472 3.0651 75.8374 2.41406 75.8374C1.70117 75.8374 1.17546 75.8472 0.836914 75.8667V75.6665C1.05827 75.6567 1.2194 75.6307 1.32031 75.5884C1.42122 75.5461 1.48958 75.4679 1.52539 75.354C1.56445 75.2401 1.58398 75.0578 1.58398 74.8071V69.8462C1.58398 69.5955 1.56445 69.4132 1.52539 69.2993C1.48958 69.1854 1.42122 69.1073 1.32031 69.0649C1.2194 69.0226 1.05827 68.9966 0.836914 68.9868V68.7866C1.1722 68.8062 1.69792 68.8159 2.41406 68.8159C3.0651 68.8159 3.56803 68.8062 3.92285 68.7866V68.9868ZM15.1336 68.9868C14.9155 69.0161 14.7544 69.0731 14.6502 69.1577C14.5493 69.2391 14.4793 69.366 14.4402 69.5386C14.4044 69.7078 14.3865 69.9634 14.3865 70.3052V75.8862C14.3377 75.883 14.2563 75.8813 14.1424 75.8813C14.0252 75.8813 13.9357 75.883 13.8738 75.8862L9.53301 70.3882V74.2261C9.53301 74.62 9.55417 74.9097 9.59648 75.0952C9.6388 75.2775 9.72506 75.411 9.85527 75.4956C9.98874 75.5802 10.2052 75.6372 10.5047 75.6665V75.8667C10.2475 75.8472 9.88783 75.8374 9.42559 75.8374C9.05775 75.8374 8.76803 75.8472 8.55645 75.8667V75.6665C8.77454 75.6372 8.93405 75.5819 9.03496 75.5005C9.13913 75.4159 9.20911 75.2889 9.24492 75.1196C9.28398 74.9471 9.30352 74.6899 9.30352 74.3481V69.8462C9.30352 69.5955 9.28398 69.4132 9.24492 69.2993C9.20911 69.1854 9.14076 69.1073 9.03984 69.0649C8.93893 69.0226 8.7778 68.9966 8.55645 68.9868V68.7866C8.76803 68.8062 9.05775 68.8159 9.42559 68.8159C9.76087 68.8159 10.0473 68.8062 10.285 68.7866L14.157 73.5571V70.4272C14.157 70.0334 14.1359 69.7453 14.0936 69.563C14.0512 69.3774 13.9633 69.2424 13.8299 69.1577C13.6997 69.0731 13.4848 69.0161 13.1854 68.9868V68.7866C13.4425 68.8062 13.8022 68.8159 14.2645 68.8159C14.6355 68.8159 14.9253 68.8062 15.1336 68.7866V68.9868ZM19.6695 71.2476C19.6923 71.0262 19.7037 70.7723 19.7037 70.4858C19.7037 70.0301 19.6793 69.4637 19.6305 68.7866C20.2392 68.8062 21.2695 68.8159 22.7213 68.8159C24.1731 68.8159 25.2001 68.8062 25.8023 68.7866C25.7535 69.4637 25.7291 70.0301 25.7291 70.4858C25.7291 70.7723 25.7405 71.0262 25.7633 71.2476H25.5338C25.4231 70.6909 25.288 70.2515 25.1285 69.9292C24.969 69.6037 24.777 69.3709 24.5523 69.231C24.331 69.0877 24.0608 69.0161 23.7418 69.0161H23.5123V74.729C23.5123 75.0057 23.54 75.2075 23.5953 75.3345C23.6539 75.4614 23.7548 75.5477 23.898 75.5933C24.0445 75.6388 24.2724 75.6632 24.5816 75.6665V75.8667C23.7418 75.8472 23.1087 75.8374 22.6822 75.8374C22.2623 75.8374 21.652 75.8472 20.8512 75.8667V75.6665C21.1637 75.6632 21.3915 75.6388 21.5348 75.5933C21.6812 75.5477 21.7822 75.4614 21.8375 75.3345C21.8928 75.2075 21.9205 75.0057 21.9205 74.729V69.0161H21.7008C21.3785 69.0161 21.1051 69.0861 20.8805 69.2261C20.6591 69.366 20.4687 69.5988 20.3092 69.9243C20.1497 70.2466 20.013 70.6877 19.899 71.2476H19.6695ZM35.8607 73.5083C35.8412 73.7264 35.8314 74.0063 35.8314 74.3481C35.8314 74.9601 35.8542 75.4663 35.8998 75.8667C35.4473 75.8472 34.684 75.8374 33.6098 75.8374C32.1579 75.8374 31.0723 75.8472 30.3529 75.8667V75.6665C30.5743 75.6567 30.7354 75.6307 30.8363 75.5884C30.9372 75.5461 31.0056 75.4679 31.0414 75.354C31.0805 75.2401 31.1 75.0578 31.1 74.8071V69.8462C31.1 69.5955 31.0805 69.4132 31.0414 69.2993C31.0056 69.1854 30.9372 69.1073 30.8363 69.0649C30.7354 69.0226 30.5743 68.9966 30.3529 68.9868V68.7866C31.0723 68.8062 32.1579 68.8159 33.6098 68.8159C34.5896 68.8159 35.2862 68.8062 35.6996 68.7866C35.654 69.3368 35.6313 69.8299 35.6313 70.2661C35.6313 70.5623 35.641 70.7886 35.6605 70.9448H35.4311C35.3627 70.4598 35.2585 70.0773 35.1186 69.7974C34.9786 69.5174 34.8012 69.3172 34.5863 69.1968C34.3715 69.0763 34.1062 69.0161 33.7904 69.0161H33.3803C33.1719 69.0161 33.0206 69.034 32.9262 69.0698C32.835 69.1024 32.7732 69.1675 32.7406 69.2651C32.7081 69.3595 32.6918 69.5142 32.6918 69.729V72.2046H33.0092C33.3673 72.2046 33.6374 72.0744 33.8197 71.814C34.002 71.5535 34.129 71.2443 34.2006 70.8862H34.4301C34.4073 71.215 34.3959 71.5291 34.3959 71.8286L34.4008 72.3071C34.4008 72.6457 34.4203 73.1193 34.4594 73.728H34.2299C34.0964 72.8459 33.6895 72.4048 33.0092 72.4048H32.6918V74.9243C32.6918 75.1392 32.7081 75.2954 32.7406 75.3931C32.7732 75.4875 32.835 75.5526 32.9262 75.5884C33.0206 75.6209 33.1719 75.6372 33.3803 75.6372H33.8734C34.3422 75.6372 34.7214 75.4744 35.0111 75.1489C35.3041 74.8234 35.5108 74.2765 35.6313 73.5083H35.8607ZM47.4182 75.4272C47.2359 75.6323 47.0406 75.7804 46.8322 75.8716C46.6271 75.9627 46.3798 76.0083 46.09 76.0083C45.7059 76.0083 45.4016 75.9269 45.177 75.7642C44.9523 75.6014 44.8059 75.3215 44.7375 74.9243L44.5568 73.9282C44.4982 73.606 44.4364 73.3472 44.3713 73.1519C44.3094 72.9533 44.2183 72.797 44.0979 72.6831C43.9807 72.5659 43.8244 72.5073 43.6291 72.5073H42.9797V74.8071C42.9797 75.0578 42.9976 75.2401 43.0334 75.354C43.0692 75.4679 43.1376 75.5461 43.2385 75.5884C43.3394 75.6307 43.5021 75.6567 43.7268 75.6665V75.8667C43.3719 75.8472 42.869 75.8374 42.218 75.8374C41.5051 75.8374 40.9794 75.8472 40.6408 75.8667V75.6665C40.8622 75.6567 41.0233 75.6307 41.1242 75.5884C41.2251 75.5461 41.2935 75.4679 41.3293 75.354C41.3684 75.2401 41.3879 75.0578 41.3879 74.8071V69.8462C41.3879 69.5955 41.3684 69.4132 41.3293 69.2993C41.2935 69.1854 41.2251 69.1073 41.1242 69.0649C41.0233 69.0226 40.8622 68.9966 40.6408 68.9868V68.7866C40.9794 68.8062 41.4855 68.8159 42.1594 68.8159C42.4263 68.8159 42.7225 68.8127 43.048 68.8062C43.3736 68.7996 43.5998 68.7964 43.7268 68.7964C44.6447 68.7964 45.3365 68.9478 45.802 69.2505C46.2674 69.55 46.5002 69.978 46.5002 70.5347C46.5002 70.8309 46.4302 71.1125 46.2902 71.3794C46.1503 71.6463 45.9126 71.8791 45.5773 72.0776C45.2421 72.2729 44.7993 72.4032 44.2492 72.4683H44.259C44.6626 72.5041 44.993 72.5724 45.2502 72.6733C45.5106 72.7743 45.7141 72.9159 45.8605 73.0981C46.007 73.2772 46.1096 73.5067 46.1682 73.7866L46.3977 74.8169C46.453 75.0871 46.5148 75.2743 46.5832 75.3784C46.6548 75.4826 46.7541 75.5347 46.8811 75.5347C46.9592 75.5314 47.0275 75.5119 47.0861 75.4761C47.1447 75.4403 47.2098 75.3833 47.2814 75.3052L47.4182 75.4272ZM43.4094 72.3071C43.7837 72.3071 44.0751 72.2355 44.2834 72.0923C44.495 71.9491 44.6398 71.757 44.718 71.5161C44.7993 71.2752 44.84 70.9855 44.84 70.647C44.84 70.1001 44.7424 69.6867 44.5471 69.4067C44.355 69.1268 44.0393 68.9868 43.5998 68.9868C43.4208 68.9868 43.2873 69.0112 43.1994 69.0601C43.1148 69.1056 43.0562 69.1886 43.0236 69.3091C42.9943 69.4263 42.9797 69.6053 42.9797 69.8462V72.3071H43.4094ZM54.6006 68.9868C54.376 68.9966 54.2132 69.0226 54.1123 69.0649C54.0114 69.1073 53.943 69.1854 53.9072 69.2993C53.8714 69.4132 53.8535 69.5955 53.8535 69.8462V74.8071C53.8535 75.0578 53.8714 75.2401 53.9072 75.354C53.943 75.4679 54.0114 75.5461 54.1123 75.5884C54.2132 75.6307 54.376 75.6567 54.6006 75.6665V75.8667C54.2458 75.8472 53.7428 75.8374 53.0918 75.8374C52.3789 75.8374 51.8532 75.8472 51.5146 75.8667V75.6665C51.736 75.6567 51.8971 75.6307 51.998 75.5884C52.099 75.5461 52.1673 75.4679 52.2031 75.354C52.2422 75.2401 52.2617 75.0578 52.2617 74.8071V69.8462C52.2617 69.5955 52.2422 69.4132 52.2031 69.2993C52.1673 69.1854 52.099 69.1073 51.998 69.0649C51.8971 69.0226 51.736 68.9966 51.5146 68.9868V68.7866C51.8499 68.8062 52.3757 68.8159 53.0918 68.8159C53.7428 68.8159 54.2458 68.8062 54.6006 68.7866V68.9868ZM62.7742 68.645C63.4773 68.645 64.0942 68.7882 64.6248 69.0747C65.1587 69.3612 65.5721 69.7778 65.865 70.3247C66.158 70.8683 66.3045 71.5161 66.3045 72.2681C66.3045 73.0037 66.1531 73.6548 65.8504 74.2212C65.5509 74.7876 65.1326 75.2271 64.5955 75.5396C64.0584 75.8521 63.448 76.0083 62.7645 76.0083C62.0581 76.0083 61.438 75.8651 60.9041 75.5786C60.3735 75.2922 59.9617 74.8771 59.6688 74.3335C59.379 73.7866 59.2342 73.1372 59.2342 72.3853C59.2342 71.6496 59.3839 70.9985 59.6834 70.4321C59.9829 69.8657 60.4012 69.4263 60.9383 69.1138C61.4754 68.8013 62.0874 68.645 62.7742 68.645ZM62.7352 68.8257C62.3673 68.8257 62.0434 68.9754 61.7635 69.2749C61.4868 69.5711 61.2719 69.9862 61.1189 70.52C60.9692 71.0506 60.8943 71.6593 60.8943 72.3462C60.8943 73.0396 60.979 73.6499 61.1482 74.1772C61.3175 74.7046 61.547 75.1115 61.8367 75.3979C62.1264 75.6844 62.4487 75.8276 62.8035 75.8276C63.1714 75.8276 63.4936 75.6795 63.7703 75.3833C64.0503 75.0838 64.2651 74.6688 64.4148 74.1382C64.5678 73.6043 64.6443 72.994 64.6443 72.3071C64.6443 71.617 64.5597 71.0083 64.3904 70.481C64.2212 69.9504 63.99 69.5418 63.6971 69.2554C63.4074 68.9689 63.0867 68.8257 62.7352 68.8257ZM77.7252 75.4272C77.5429 75.6323 77.3476 75.7804 77.1393 75.8716C76.9342 75.9627 76.6868 76.0083 76.3971 76.0083C76.013 76.0083 75.7086 75.9269 75.484 75.7642C75.2594 75.6014 75.1129 75.3215 75.0445 74.9243L74.8639 73.9282C74.8053 73.606 74.7434 73.3472 74.6783 73.1519C74.6165 72.9533 74.5253 72.797 74.4049 72.6831C74.2877 72.5659 74.1314 72.5073 73.9361 72.5073H73.2867V74.8071C73.2867 75.0578 73.3046 75.2401 73.3404 75.354C73.3762 75.4679 73.4446 75.5461 73.5455 75.5884C73.6464 75.6307 73.8092 75.6567 74.0338 75.6665V75.8667C73.679 75.8472 73.176 75.8374 72.525 75.8374C71.8121 75.8374 71.2864 75.8472 70.9479 75.8667V75.6665C71.1692 75.6567 71.3303 75.6307 71.4313 75.5884C71.5322 75.5461 71.6005 75.4679 71.6363 75.354C71.6754 75.2401 71.6949 75.0578 71.6949 74.8071V69.8462C71.6949 69.5955 71.6754 69.4132 71.6363 69.2993C71.6005 69.1854 71.5322 69.1073 71.4313 69.0649C71.3303 69.0226 71.1692 68.9966 70.9479 68.9868V68.7866C71.2864 68.8062 71.7926 68.8159 72.4664 68.8159C72.7333 68.8159 73.0296 68.8127 73.3551 68.8062C73.6806 68.7996 73.9068 68.7964 74.0338 68.7964C74.9518 68.7964 75.6435 68.9478 76.109 69.2505C76.5745 69.55 76.8072 69.978 76.8072 70.5347C76.8072 70.8309 76.7372 71.1125 76.5973 71.3794C76.4573 71.6463 76.2197 71.8791 75.8844 72.0776C75.5491 72.2729 75.1064 72.4032 74.5563 72.4683H74.566C74.9697 72.5041 75.3001 72.5724 75.5572 72.6733C75.8176 72.7743 76.0211 72.9159 76.1676 73.0981C76.3141 73.2772 76.4166 73.5067 76.4752 73.7866L76.7047 74.8169C76.76 75.0871 76.8219 75.2743 76.8902 75.3784C76.9619 75.4826 77.0611 75.5347 77.1881 75.5347C77.2662 75.5314 77.3346 75.5119 77.3932 75.4761C77.4518 75.4403 77.5169 75.3833 77.5885 75.3052L77.7252 75.4272ZM73.7164 72.3071C74.0908 72.3071 74.3821 72.2355 74.5904 72.0923C74.802 71.9491 74.9469 71.757 75.025 71.5161C75.1064 71.2752 75.1471 70.9855 75.1471 70.647C75.1471 70.1001 75.0494 69.6867 74.8541 69.4067C74.662 69.1268 74.3463 68.9868 73.9068 68.9868C73.7278 68.9868 73.5943 69.0112 73.5064 69.0601C73.4218 69.1056 73.3632 69.1886 73.3307 69.3091C73.3014 69.4263 73.2867 69.6053 73.2867 69.8462V72.3071H73.7164Z" fill="#2B4248"/>
<circle cx="28.4401" cy="26.5744" r="25.9694" stroke="#2B4248"/>
<circle cx="43.1452" cy="26.5744" r="25.9694" stroke="#2B4248"/>
<circle cx="54.9089" cy="26.5744" r="25.9694" stroke="#2B4248"/>
<path fill-rule="evenodd" clip-rule="evenodd" d="M41.5 49.1054C49.2714 44.6142 54.5 36.2198 54.5 26.6053C54.5 16.9909 49.2714 8.59654 41.5 4.10535C33.7286 8.59654 28.5 16.9909 28.5 26.6053C28.5 36.2198 33.7286 44.6142 41.5 49.1054Z" fill="#2B4248"/>
</svg>
